<svg width="566" height="601" viewBox="0 0 566 601" fill="none" xmlns="http://www.w3.org/2000/svg">
<path d="M489.39 312.8C489.39 312.8 509.52 206.35 454.69 146C406.29 92.69 329.69 72 267.21 116C245 131.7 228.75 162.2 202.75 171.62C173.6 182.19 136.13 186 109.06 231.26C81.99 276.52 91.71 334.69 127.8 365.65C163.89 396.61 227.05 366.4 283.96 364.14C340.87 361.88 459.55 444.16 489.39 312.8Z" fill="#F9B375"/>
<path opacity="0.8" d="M489.39 312.8C489.39 312.8 509.52 206.35 454.69 146C406.29 92.69 329.69 72 267.21 116C245 131.7 228.75 162.2 202.75 171.62C173.6 182.19 136.13 186 109.06 231.26C81.99 276.52 91.71 334.69 127.8 365.65C163.89 396.61 227.05 366.4 283.96 364.14C340.87 361.88 459.55 444.16 489.39 312.8Z" fill="white"/>
<path d="M268.66 217.26H446.43C448.552 217.26 450.587 218.103 452.087 219.603C453.587 221.103 454.43 223.138 454.43 225.26V350H260.69V225.23C260.698 223.119 261.54 221.096 263.033 219.603C264.526 218.11 266.549 217.268 268.66 217.26Z" fill="#263238" stroke="#263238" stroke-linecap="round" stroke-linejoin="round"/>
<path d="M483.46 408.67H231.63L260.69 349.99H454.4L483.46 408.67Z" fill="white" stroke="#263238" stroke-linecap="round" stroke-linejoin="round"/>
<path d="M442.67 227.77H272.42V339.48H442.67V227.77Z" fill="#A7A9A6" stroke="#263238" stroke-linecap="round" stroke-linejoin="round"/>
<path d="M349.46 368.56L349.8 361.41H339.56L338.88 368.56H349.46Z" fill="#263238" stroke="white" stroke-linecap="round" stroke-linejoin="round"/>
<path d="M370.62 368.56L370.27 361.41H360.03L360.04 368.56H370.62Z" fill="#263238" stroke="white" stroke-linecap="round" stroke-linejoin="round"/>
<path d="M425.71 376.21H436.65L434.08 368.56H423.51L425.71 376.21Z" fill="#263238" stroke="white" stroke-linecap="round" stroke-linejoin="round"/>
<path d="M338.88 368.56L339.56 361.41H329.33L328.31 368.56H338.88Z" fill="#263238" stroke="white" stroke-linecap="round" stroke-linejoin="round"/>
<path d="M317.73 368.56L319.09 361.41H308.86L307.15 368.56H317.73Z" fill="#263238" stroke="white" stroke-linecap="round" stroke-linejoin="round"/>
<path d="M412.93 368.56L411.21 361.41H400.98L402.35 368.56H412.93Z" fill="#263238" stroke="white" stroke-linecap="round" stroke-linejoin="round"/>
<path d="M423.51 368.56L421.45 361.41H411.21L412.93 368.56H423.51Z" fill="#263238" stroke="white" stroke-linecap="round" stroke-linejoin="round"/>
<path d="M307.15 368.56L308.86 361.41H298.62L296.57 368.56H307.15Z" fill="#263238" stroke="white" stroke-linecap="round" stroke-linejoin="round"/>
<path d="M381.19 368.56L380.5 361.41H370.27L370.62 368.56H381.19Z" fill="#263238" stroke="white" stroke-linecap="round" stroke-linejoin="round"/>
<path d="M434.08 368.56L431.68 361.41H421.45L423.51 368.56H434.08Z" fill="#263238" stroke="white" stroke-linecap="round" stroke-linejoin="round"/>
<path d="M402.35 368.56L400.98 361.41H390.74L391.77 368.56H402.35Z" fill="#263238" stroke="white" stroke-linecap="round" stroke-linejoin="round"/>
<path d="M391.77 368.56L390.74 361.41H380.5L381.19 368.56H391.77Z" fill="#263238" stroke="white" stroke-linecap="round" stroke-linejoin="round"/>
<path d="M360.04 368.56L360.03 361.41H349.8L349.46 368.56H360.04Z" fill="#263238" stroke="white" stroke-linecap="round" stroke-linejoin="round"/>
<path d="M286 368.56H275.42L272.5 376.21H283.44L286 368.56Z" fill="#263238" stroke="white" stroke-linecap="round" stroke-linejoin="round"/>
<path d="M288.38 361.41H278.15L275.42 368.56H286L288.38 361.41Z" fill="#263238" stroke="white" stroke-linecap="round" stroke-linejoin="round"/>
<path d="M296.57 368.56L298.62 361.41H288.38L286 368.56H296.57Z" fill="#263238" stroke="white" stroke-linecap="round" stroke-linejoin="round"/>
<path d="M269.37 384.4L266 393.2H277.76L280.7 384.4H269.37Z" fill="#263238" stroke="white" stroke-linecap="round" stroke-linejoin="round"/>
<path d="M283.44 376.21H272.5L269.37 384.4H280.7L283.44 376.21Z" fill="#263238" stroke="white" stroke-linecap="round" stroke-linejoin="round"/>
<path d="M280.7 384.4L277.76 393.2H289.52L292.04 384.4H280.7Z" fill="#263238" stroke="white" stroke-linecap="round" stroke-linejoin="round"/>
<path d="M328.31 368.56L329.33 361.41H319.09L317.73 368.56H328.31Z" fill="#263238" stroke="white" stroke-linecap="round" stroke-linejoin="round"/>
<path d="M327.21 376.21L328.31 368.56H317.73L316.27 376.21H327.21Z" fill="#263238" stroke="white" stroke-linecap="round" stroke-linejoin="round"/>
<path d="M316.27 376.21L317.73 368.56H307.15L305.33 376.21H316.27Z" fill="#263238" stroke="white" stroke-linecap="round" stroke-linejoin="round"/>
<path d="M338.16 376.21L338.88 368.56H328.31L327.21 376.21H338.16Z" fill="#263238" stroke="white" stroke-linecap="round" stroke-linejoin="round"/>
<path d="M296.57 368.56H286L283.44 376.21H294.38L296.57 368.56Z" fill="#263238" stroke="white" stroke-linecap="round" stroke-linejoin="round"/>
<path d="M428.07 384.4H439.41L436.65 376.21H425.71L428.07 384.4Z" fill="#263238" stroke="white" stroke-linecap="round" stroke-linejoin="round"/>
<path d="M305.33 376.21L307.15 368.56H296.57L294.38 376.21H305.33Z" fill="#263238" stroke="white" stroke-linecap="round" stroke-linejoin="round"/>
<path d="M283.44 376.21L280.7 384.4H292.04L294.38 376.21H283.44Z" fill="#263238" stroke="white" stroke-linecap="round" stroke-linejoin="round"/>
<path d="M403.82 376.21L402.35 368.56H391.77L392.88 376.21H403.82Z" fill="#263238" stroke="white" stroke-linecap="round" stroke-linejoin="round"/>
<path d="M392.88 376.21L391.77 368.56H381.19L381.93 376.21H392.88Z" fill="#263238" stroke="white" stroke-linecap="round" stroke-linejoin="round"/>
<path d="M425.71 376.21L423.51 368.56H412.93L414.76 376.21H425.71Z" fill="#263238" stroke="white" stroke-linecap="round" stroke-linejoin="round"/>
<path d="M360.05 376.21L360.04 368.56H349.46L349.1 376.21H360.05Z" fill="#263238" stroke="white" stroke-linecap="round" stroke-linejoin="round"/>
<path d="M381.93 376.21L381.19 368.56H370.62L370.99 376.21H381.93Z" fill="#263238" stroke="white" stroke-linecap="round" stroke-linejoin="round"/>
<path d="M370.99 376.21L370.62 368.56H360.04L360.05 376.21H370.99Z" fill="#263238" stroke="white" stroke-linecap="round" stroke-linejoin="round"/>
<path d="M349.1 376.21L349.46 368.56H338.88L338.16 376.21H349.1Z" fill="#263238" stroke="white" stroke-linecap="round" stroke-linejoin="round"/>
<path d="M381.93 376.21L382.73 384.4H394.06L392.88 376.21H381.93Z" fill="#263238" stroke="white" stroke-linecap="round" stroke-linejoin="round"/>
<path d="M392.88 376.21L394.06 384.4H405.4L403.82 376.21H392.88Z" fill="#263238" stroke="white" stroke-linecap="round" stroke-linejoin="round"/>
<path d="M294.38 376.21L292.04 384.4H303.38L305.33 376.21H294.38Z" fill="#263238" stroke="white" stroke-linecap="round" stroke-linejoin="round"/>
<path d="M403.82 376.21L405.4 384.4H416.73L414.76 376.21H403.82Z" fill="#263238" stroke="white" stroke-linecap="round" stroke-linejoin="round"/>
<path d="M360.05 376.21V384.4H371.39L370.99 376.21H360.05Z" fill="#263238" stroke="white" stroke-linecap="round" stroke-linejoin="round"/>
<path d="M414.76 376.21L416.73 384.4H428.07L425.71 376.21H414.76Z" fill="#263238" stroke="white" stroke-linecap="round" stroke-linejoin="round"/>
<path d="M370.99 376.21L371.39 384.4H382.73L381.93 376.21H370.99Z" fill="#263238" stroke="white" stroke-linecap="round" stroke-linejoin="round"/>
<path d="M316.27 376.21L314.71 384.4H326.05L327.21 376.21H316.27Z" fill="#263238" stroke="white" stroke-linecap="round" stroke-linejoin="round"/>
<path d="M305.33 376.21L303.38 384.4H314.71L316.27 376.21H305.33Z" fill="#263238" stroke="white" stroke-linecap="round" stroke-linejoin="round"/>
<path d="M349.1 376.21L348.72 384.4H360.05V376.21H349.1Z" fill="#263238" stroke="white" stroke-linecap="round" stroke-linejoin="round"/>
<path d="M338.16 376.21L337.38 384.4H348.72L349.1 376.21H338.16Z" fill="#263238" stroke="white" stroke-linecap="round" stroke-linejoin="round"/>
<path d="M327.21 376.21L326.05 384.4H337.38L338.16 376.21H327.21Z" fill="#263238" stroke="white" stroke-linecap="round" stroke-linejoin="round"/>
<path d="M414.76 376.21L412.93 368.56H402.35L403.82 376.21H414.76Z" fill="#263238" stroke="white" stroke-linecap="round" stroke-linejoin="round"/>
<path d="M288.38 361.41L290.83 354.09H280.94L278.15 361.41H288.38Z" fill="#263238" stroke="white" stroke-linecap="round" stroke-linejoin="round"/>
<path d="M278.15 361.41H268.7L265.65 368.56H275.42L278.15 361.41Z" fill="#263238" stroke="white" stroke-linecap="round" stroke-linejoin="round"/>
<path d="M280.94 354.09H271.82L268.7 361.41H278.15L280.94 354.09Z" fill="#263238" stroke="white" stroke-linecap="round" stroke-linejoin="round"/>
<path d="M275.42 368.56H265.65L262.4 376.21H272.5L275.42 368.56Z" fill="#263238" stroke="white" stroke-linecap="round" stroke-linejoin="round"/>
<path d="M272.5 376.21H262.4L258.9 384.4H269.37L272.5 376.21Z" fill="#263238" stroke="white" stroke-linecap="round" stroke-linejoin="round"/>
<path d="M269.37 384.4H258.9L255.15 393.2H266L269.37 384.4Z" fill="#263238" stroke="white" stroke-linecap="round" stroke-linejoin="round"/>
<path d="M444.66 368.56L447.6 376.21H457.28L454.02 368.56H444.66Z" fill="#263238" stroke="white" stroke-linecap="round" stroke-linejoin="round"/>
<path d="M450.74 384.4H460.77L457.28 376.21H447.6L450.74 384.4Z" fill="#263238" stroke="white" stroke-linecap="round" stroke-linejoin="round"/>
<path d="M454.12 393.2H464.52L460.77 384.4H450.74L454.12 393.2Z" fill="#263238" stroke="white" stroke-linecap="round" stroke-linejoin="round"/>
<path d="M370.27 361.41L369.91 354.09H360.03V361.41H370.27Z" fill="#263238" stroke="white" stroke-linecap="round" stroke-linejoin="round"/>
<path d="M444.66 368.56H454.02L450.97 361.41H441.92L444.66 368.56Z" fill="#263238" stroke="white" stroke-linecap="round" stroke-linejoin="round"/>
<path d="M439.41 384.4H450.74L447.6 376.21H436.65L439.41 384.4Z" fill="#263238" stroke="white" stroke-linecap="round" stroke-linejoin="round"/>
<path d="M298.62 361.41L300.71 354.09H290.83L288.38 361.41H298.62Z" fill="#263238" stroke="white" stroke-linecap="round" stroke-linejoin="round"/>
<path d="M431.68 361.41L434.08 368.56H444.66L441.92 361.41H431.68Z" fill="#263238" stroke="white" stroke-linecap="round" stroke-linejoin="round"/>
<path d="M450.97 361.41L447.85 354.09H439.11L441.92 361.41H450.97Z" fill="#263238" stroke="white" stroke-linecap="round" stroke-linejoin="round"/>
<path d="M441.92 361.41L439.11 354.09H429.22L431.68 361.41H441.92Z" fill="#263238" stroke="white" stroke-linecap="round" stroke-linejoin="round"/>
<path d="M405.4 384.4L407.09 393.2H418.85L416.73 384.4H405.4Z" fill="#263238" stroke="white" stroke-linecap="round" stroke-linejoin="round"/>
<path d="M442.36 393.2H454.12L450.74 384.4H439.41L442.36 393.2Z" fill="#263238" stroke="white" stroke-linecap="round" stroke-linejoin="round"/>
<path d="M431.68 361.41L429.22 354.09H419.34L421.45 361.41H431.68Z" fill="#263238" stroke="white" stroke-linecap="round" stroke-linejoin="round"/>
<path d="M428.07 384.4L430.61 393.2H442.36L439.41 384.4H428.07Z" fill="#263238" stroke="white" stroke-linecap="round" stroke-linejoin="round"/>
<path d="M416.73 384.4L418.85 393.2H430.61L428.07 384.4H416.73Z" fill="#263238" stroke="white" stroke-linecap="round" stroke-linejoin="round"/>
<path d="M436.65 376.21H447.6L444.66 368.56H434.08L436.65 376.21Z" fill="#263238" stroke="white" stroke-linecap="round" stroke-linejoin="round"/>
<path d="M339.56 361.41L340.26 354.09H330.37L329.33 361.41H339.56Z" fill="#263238" stroke="white" stroke-linecap="round" stroke-linejoin="round"/>
<path d="M421.45 361.41L419.34 354.09H409.45L411.21 361.41H421.45Z" fill="#263238" stroke="white" stroke-linecap="round" stroke-linejoin="round"/>
<path d="M329.33 361.41L330.37 354.09H320.49L319.09 361.41H329.33Z" fill="#263238" stroke="white" stroke-linecap="round" stroke-linejoin="round"/>
<path d="M360.03 361.41V354.09H350.14L349.8 361.41H360.03Z" fill="#263238" stroke="white" stroke-linecap="round" stroke-linejoin="round"/>
<path d="M319.09 361.41L320.49 354.09H310.6L308.86 361.41H319.09Z" fill="#263238" stroke="white" stroke-linecap="round" stroke-linejoin="round"/>
<path d="M308.86 361.41L310.6 354.09H300.71L298.62 361.41H308.86Z" fill="#263238" stroke="white" stroke-linecap="round" stroke-linejoin="round"/>
<path d="M349.8 361.41L350.14 354.09H340.26L339.56 361.41H349.8Z" fill="#263238" stroke="white" stroke-linecap="round" stroke-linejoin="round"/>
<path d="M411.21 361.41L409.45 354.09H399.57L400.98 361.41H411.21Z" fill="#263238" stroke="white" stroke-linecap="round" stroke-linejoin="round"/>
<path d="M400.98 361.41L399.57 354.09H389.68L390.74 361.41H400.98Z" fill="#263238" stroke="white" stroke-linecap="round" stroke-linejoin="round"/>
<path d="M380.5 361.41L379.8 354.09H369.91L370.27 361.41H380.5Z" fill="#263238" stroke="white" stroke-linecap="round" stroke-linejoin="round"/>
<path d="M405.4 384.4H394.06H382.73H371.39H360.05H348.72H337.38H326.05H314.71H303.38H292.04L289.52 393.2H301.28H313.03H324.79H336.55H348.31H360.06H371.82H383.58H395.33H407.09L405.4 384.4Z" fill="#263238" stroke="white" stroke-linecap="round" stroke-linejoin="round"/>
<path d="M390.74 361.41L389.68 354.09H379.8L380.5 361.41H390.74Z" fill="#263238" stroke="white" stroke-linecap="round" stroke-linejoin="round"/>
<path d="M483.57 408.66H231.63V412.23H483.57V408.66Z" fill="#263238" stroke="#263238" stroke-linecap="round" stroke-linejoin="round"/>
<path opacity="0.15" d="M424.91 253.25V349.34L396.98 385.75L392.28 387.51L249 408.65V413.35L196.52 416.17V364.61H286V252.79L424.91 253.25Z" fill="black"/>
<path d="M164.34 354.3C157.89 354.62 150.9 359.54 150.9 359.54L78 416.17H196.52C196.52 416.17 271.35 359.7 273.59 358.08C277.14 355.52 284.18 354.22 284.18 354.22L280.85 354.3H164.34Z" fill="white" stroke="#263238" stroke-linecap="round" stroke-linejoin="round"/>
<path d="M437 253.34H278.39" stroke="#263238" stroke-linecap="round" stroke-linejoin="round"/>
<path d="M413.08 219.16C411.525 219.159 409.985 219.464 408.549 220.059C407.112 220.653 405.807 221.526 404.708 222.625C403.61 223.725 402.738 225.031 402.145 226.468C401.551 227.905 401.247 229.445 401.25 231V376.41C401.246 378.328 400.783 380.217 399.899 381.918C399.015 383.62 397.735 385.085 396.169 386.191C394.602 387.297 392.792 388.011 390.893 388.273C388.993 388.536 387.058 388.339 385.25 387.7L295.52 355.83C290.814 354.154 285.724 353.869 280.86 355.01V231C280.86 227.862 282.106 224.853 284.325 222.635C286.543 220.416 289.552 219.17 292.69 219.17L413.08 219.16Z" fill="white"/>
<mask id="mask0_47_1075" style="mask-type:luminance" maskUnits="userSpaceOnUse" x="280" y="219" width="134" height="170">
<path d="M413.08 219.16C411.525 219.159 409.985 219.464 408.549 220.059C407.112 220.653 405.807 221.526 404.708 222.625C403.61 223.725 402.738 225.031 402.145 226.468C401.551 227.905 401.247 229.445 401.25 231V376.41C401.246 378.328 400.783 380.217 399.899 381.918C399.015 383.62 397.735 385.085 396.169 386.191C394.602 387.297 392.792 388.011 390.893 388.273C388.993 388.536 387.058 388.339 385.25 387.7L295.52 355.83C290.814 354.154 285.724 353.869 280.86 355.01V231C280.86 227.862 282.106 224.853 284.325 222.635C286.543 220.416 289.552 219.17 292.69 219.17L413.08 219.16Z" fill="white"/>
</mask>
<g mask="url(#mask0_47_1075)">
<path d="M306.54 359.75L385.24 387.7C387.048 388.339 388.983 388.536 390.883 388.273C392.782 388.011 394.592 387.297 396.159 386.191C397.725 385.085 399.005 383.62 399.889 381.918C400.773 380.217 401.236 378.328 401.24 376.41V359.75H306.54Z" fill="#A7A9A6"/>
<path opacity="0.6" d="M306.54 359.75L385.24 387.7C387.048 388.339 388.983 388.536 390.883 388.273C392.782 388.011 394.592 387.297 396.159 386.191C397.725 385.085 399.005 383.62 399.889 381.918C400.773 380.217 401.236 378.328 401.24 376.41V359.75H306.54Z" fill="white"/>
<path d="M306.54 378.9L385.24 406.9C387.049 407.539 388.985 407.736 390.885 407.473C392.786 407.21 394.595 406.495 396.163 405.388C397.73 404.281 399.009 402.815 399.892 401.112C400.776 399.409 401.238 397.519 401.24 395.6V378.9H306.54Z" fill="#A7A9A6"/>
</g>
<path d="M413.08 219.16C411.525 219.159 409.985 219.464 408.549 220.059C407.112 220.653 405.807 221.526 404.708 222.625C403.61 223.725 402.738 225.031 402.145 226.468C401.551 227.905 401.247 229.445 401.25 231V376.41C401.246 378.328 400.783 380.217 399.899 381.918C399.015 383.62 397.735 385.085 396.169 386.191C394.602 387.297 392.792 388.011 390.893 388.273C388.993 388.536 387.058 388.339 385.25 387.7L295.52 355.83C290.814 354.154 285.724 353.869 280.86 355.01V231C280.86 227.862 282.106 224.853 284.325 222.635C286.543 220.416 289.552 219.17 292.69 219.17L413.08 219.16Z" stroke="#263238" stroke-linecap="round" stroke-linejoin="round"/>
<path d="M285.95 354.3H280.85" stroke="#263238" stroke-linecap="round" stroke-linejoin="round"/>
<path d="M389.27 388.41H268.87C267.506 388.404 266.153 388.164 264.87 387.7L244.08 380.39L269.93 360.49C273.42 357.548 277.619 355.57 282.11 354.753C286.601 353.935 291.227 354.307 295.53 355.83L385.26 387.7C386.546 388.164 387.903 388.405 389.27 388.41Z" fill="white"/>
<mask id="mask1_47_1075" style="mask-type:luminance" maskUnits="userSpaceOnUse" x="244" y="354" width="146" height="35">
<path d="M389.27 388.41H268.87C267.506 388.404 266.153 388.164 264.87 387.7L244.08 380.39L269.93 360.49C273.42 357.548 277.619 355.57 282.11 354.753C286.601 353.935 291.227 354.307 295.53 355.83L385.26 387.7C386.546 388.164 387.903 388.405 389.27 388.41Z" fill="white"/>
</mask>
<g mask="url(#mask1_47_1075)">
<path d="M389.27 388.41H268.87C267.506 388.404 266.153 388.164 264.87 387.7L242.79 380L269.91 360.49C273.4 357.548 277.599 355.57 282.09 354.753C286.581 353.935 291.207 354.307 295.51 355.83L385.24 387.7C386.533 388.167 387.896 388.407 389.27 388.41Z" fill="#A7A9A6"/>
<path opacity="0.2" d="M389.27 388.41H268.87C267.506 388.404 266.153 388.164 264.87 387.7L242.79 380L269.91 360.49C273.4 357.548 277.599 355.57 282.09 354.753C286.581 353.935 291.207 354.307 295.51 355.83L385.24 387.7C386.533 388.167 387.896 388.407 389.27 388.41Z" fill="black"/>
</g>
<path d="M389.27 388.41H268.87C267.506 388.404 266.153 388.164 264.87 387.7L244.08 380.39L269.93 360.49C273.42 357.548 277.619 355.57 282.11 354.753C286.601 353.935 291.227 354.307 295.53 355.83L385.26 387.7C386.546 388.164 387.903 388.405 389.27 388.41Z" stroke="#263238" stroke-linecap="round" stroke-linejoin="round"/>
<path d="M268.87 388.41H268.61" stroke="#263238" stroke-linecap="round" stroke-linejoin="round"/>
<path d="M389.5 388.41H389.27" stroke="#263238" stroke-linecap="round" stroke-linejoin="round"/>
<path d="M421.44 222.63C420.345 221.527 419.043 220.653 417.608 220.057C416.173 219.461 414.634 219.156 413.08 219.16C400.76 219.16 401.25 230.99 401.25 230.99V253.25H424.91V231C424.914 229.445 424.609 227.904 424.013 226.467C423.418 225.031 422.543 223.726 421.44 222.63Z" fill="white"/>
<mask id="mask2_47_1075" style="mask-type:luminance" maskUnits="userSpaceOnUse" x="401" y="219" width="24" height="35">
<path d="M421.44 222.63C420.345 221.527 419.043 220.653 417.608 220.057C416.173 219.461 414.634 219.156 413.08 219.16C400.76 219.16 401.25 230.99 401.25 230.99V253.25H424.91V231C424.914 229.445 424.609 227.904 424.013 226.467C423.418 225.031 422.543 223.726 421.44 222.63Z" fill="white"/>
</mask>
<g mask="url(#mask2_47_1075)">
<path d="M421.44 222.63C420.345 221.527 419.043 220.653 417.608 220.057C416.173 219.461 414.634 219.156 413.08 219.16C400.76 219.16 401.25 230.99 401.25 230.99V253.25H424.91V231C424.914 229.445 424.609 227.904 424.013 226.467C423.418 225.031 422.543 223.726 421.44 222.63Z" fill="#A7A9A6"/>
<path opacity="0.2" d="M421.44 222.63C420.345 221.527 419.043 220.653 417.608 220.057C416.173 219.461 414.634 219.156 413.08 219.16C400.76 219.16 401.25 230.99 401.25 230.99V253.25H424.91V231C424.914 229.445 424.609 227.904 424.013 226.467C423.418 225.031 422.543 223.726 421.44 222.63Z" fill="black"/>
</g>
<path d="M421.44 222.63C420.345 221.527 419.043 220.653 417.608 220.057C416.173 219.461 414.634 219.156 413.08 219.16C400.76 219.16 401.25 230.99 401.25 230.99V253.25H424.91V231C424.914 229.445 424.609 227.904 424.013 226.467C423.418 225.031 422.543 223.726 421.44 222.63Z" stroke="#263238" stroke-linecap="round" stroke-linejoin="round"/>
<g opacity="0.15">
<path d="M291.9 239.54V239.75V244.8V245.01V250.06V250.27V255.31V255.52V260.57V260.78V265.83V266.04V271.08V271.29V276.34V276.55V281.6V281.81V286.85V287.06V292.11V292.32V297.58H303.33V292.32V292.11V287.06V286.85V281.81V281.6V276.55V276.34V271.29V271.08V266.04V265.83V260.78V260.57V255.52V255.31V250.27V250.06V245.01V244.8V239.75V239.54V234.29H291.9V239.54Z" fill="black"/>
<path d="M382.02 234.29H381.78H370.84H370.59H359.65H359.4H348.47H348.22H337.28H337.03H326.1H325.85H314.91H314.66H303.48V239.75H314.66H314.91H325.85H326.1H337.03H337.28H348.22H348.47H359.4H359.65H370.59H370.84H381.78H382.02H393.21V234.29H382.02Z" fill="black"/>
</g>
<path d="M303.33 234.29H291.9V239.76H303.33V234.29Z" stroke="#263238" stroke-width="0.25" stroke-linecap="round" stroke-linejoin="round"/>
<path d="M303.33 239.54H291.9V245.01H303.33V239.54Z" stroke="#263238" stroke-width="0.25" stroke-linecap="round" stroke-linejoin="round"/>
<path d="M303.33 244.8H291.9V250.27H303.33V244.8Z" stroke="#263238" stroke-width="0.25" stroke-linecap="round" stroke-linejoin="round"/>
<path d="M303.33 250.06H291.9V255.53H303.33V250.06Z" stroke="#263238" stroke-width="0.25" stroke-linecap="round" stroke-linejoin="round"/>
<path d="M303.33 255.31H291.9V260.78H303.33V255.31Z" stroke="#263238" stroke-width="0.25" stroke-linecap="round" stroke-linejoin="round"/>
<path d="M303.33 260.57H291.9V266.04H303.33V260.57Z" stroke="#263238" stroke-width="0.25" stroke-linecap="round" stroke-linejoin="round"/>
<path d="M303.33 265.83H291.9V271.3H303.33V265.83Z" stroke="#263238" stroke-width="0.25" stroke-linecap="round" stroke-linejoin="round"/>
<path d="M303.33 271.08H291.9V276.55H303.33V271.08Z" stroke="#263238" stroke-width="0.25" stroke-linecap="round" stroke-linejoin="round"/>
<path d="M303.33 276.34H291.9V281.81H303.33V276.34Z" stroke="#263238" stroke-width="0.25" stroke-linecap="round" stroke-linejoin="round"/>
<path d="M303.33 281.6H291.9V287.07H303.33V281.6Z" stroke="#263238" stroke-width="0.25" stroke-linecap="round" stroke-linejoin="round"/>
<path d="M303.33 286.85H291.9V292.32H303.33V286.85Z" stroke="#263238" stroke-width="0.25" stroke-linecap="round" stroke-linejoin="round"/>
<path d="M303.33 292.11H291.9V297.58H303.33V292.11Z" stroke="#263238" stroke-width="0.25" stroke-linecap="round" stroke-linejoin="round"/>
<path d="M314.91 234.29H303.48V239.76H314.91V234.29Z" stroke="#263238" stroke-width="0.25" stroke-linecap="round" stroke-linejoin="round"/>
<path d="M326.09 234.29H314.66V239.76H326.09V234.29Z" stroke="#263238" stroke-width="0.25" stroke-linecap="round" stroke-linejoin="round"/>
<path d="M337.28 234.29H325.85V239.76H337.28V234.29Z" stroke="#263238" stroke-width="0.25" stroke-linecap="round" stroke-linejoin="round"/>
<path d="M348.46 234.29H337.03V239.76H348.46V234.29Z" stroke="#263238" stroke-width="0.25" stroke-linecap="round" stroke-linejoin="round"/>
<path d="M359.65 234.29H348.22V239.76H359.65V234.29Z" stroke="#263238" stroke-width="0.25" stroke-linecap="round" stroke-linejoin="round"/>
<path d="M370.83 234.29H359.4V239.76H370.83V234.29Z" stroke="#263238" stroke-width="0.25" stroke-linecap="round" stroke-linejoin="round"/>
<path d="M382.02 234.29H370.59V239.76H382.02V234.29Z" stroke="#263238" stroke-width="0.25" stroke-linecap="round" stroke-linejoin="round"/>
<path d="M393.21 234.29H381.78V239.76H393.21V234.29Z" stroke="#263238" stroke-width="0.25" stroke-linecap="round" stroke-linejoin="round"/>
<path d="M393.2 239.75H303.33V297.57H393.2V239.75Z" stroke="#263238" stroke-width="0.25" stroke-linecap="round" stroke-linejoin="round"/>
<path d="M314.76 239.75V297.56" stroke="#263238" stroke-width="0.25" stroke-linecap="round" stroke-linejoin="round"/>
<path d="M325.95 239.75V297.56" stroke="#263238" stroke-width="0.25" stroke-linecap="round" stroke-linejoin="round"/>
<path d="M337.14 239.75V297.56" stroke="#263238" stroke-width="0.25" stroke-linecap="round" stroke-linejoin="round"/>
<path d="M348.33 239.75V297.56" stroke="#263238" stroke-width="0.25" stroke-linecap="round" stroke-linejoin="round"/>
<path d="M359.51 239.75V297.56" stroke="#263238" stroke-width="0.25" stroke-linecap="round" stroke-linejoin="round"/>
<path d="M370.7 239.75V297.56" stroke="#263238" stroke-width="0.25" stroke-linecap="round" stroke-linejoin="round"/>
<path d="M381.89 239.75V297.56" stroke="#263238" stroke-width="0.25" stroke-linecap="round" stroke-linejoin="round"/>
<path d="M303.33 245.01H393.14" stroke="#263238" stroke-width="0.25" stroke-linecap="round" stroke-linejoin="round"/>
<path d="M303.33 250.25H393.14" stroke="#263238" stroke-width="0.25" stroke-linecap="round" stroke-linejoin="round"/>
<path d="M303.33 255.49H393.14" stroke="#263238" stroke-width="0.25" stroke-linecap="round" stroke-linejoin="round"/>
<path d="M303.33 260.73H393.14" stroke="#263238" stroke-width="0.25" stroke-linecap="round" stroke-linejoin="round"/>
<path d="M303.33 265.97H393.14" stroke="#263238" stroke-width="0.25" stroke-linecap="round" stroke-linejoin="round"/>
<path d="M303.33 271.2H393.14" stroke="#263238" stroke-width="0.25" stroke-linecap="round" stroke-linejoin="round"/>
<path d="M303.33 276.44H393.14" stroke="#263238" stroke-width="0.25" stroke-linecap="round" stroke-linejoin="round"/>
<path d="M303.33 281.68H393.14" stroke="#263238" stroke-width="0.25" stroke-linecap="round" stroke-linejoin="round"/>
<path d="M303.33 286.92H393.14" stroke="#263238" stroke-width="0.25" stroke-linecap="round" stroke-linejoin="round"/>
<path d="M303.33 292.16H393.14" stroke="#263238" stroke-width="0.25" stroke-linecap="round" stroke-linejoin="round"/>
<path d="M246.04 368.38H149.69L156.34 363.33H252.69L246.04 368.38Z" fill="#A7A9A6"/>
<path d="M98.7 408.92H96.34L156.34 363.33H158.71L98.7 408.92Z" fill="#A7A9A6"/>
<path d="M224.81 384.48H128.47L136 378.84H232.34L224.81 384.48Z" fill="#263238"/>
<path d="M192.38 409.15H96.03L156.34 363.33H252.69L192.38 409.15Z" stroke="#263238" stroke-width="0.25" stroke-linecap="round" stroke-linejoin="round"/>
<path d="M166.27 363.5L106.22 409.12" stroke="#263238" stroke-width="0.25" stroke-linecap="round" stroke-linejoin="round"/>
<path d="M175.95 363.5L115.9 409.12" stroke="#263238" stroke-width="0.25" stroke-linecap="round" stroke-linejoin="round"/>
<path d="M185.62 363.5L125.57 409.12" stroke="#263238" stroke-width="0.25" stroke-linecap="round" stroke-linejoin="round"/>
<path d="M195.3 363.5L135.25 409.12" stroke="#263238" stroke-width="0.25" stroke-linecap="round" stroke-linejoin="round"/>
<path d="M204.98 363.5L144.93 409.12" stroke="#263238" stroke-width="0.25" stroke-linecap="round" stroke-linejoin="round"/>
<path d="M214.66 363.5L154.6 409.12" stroke="#263238" stroke-width="0.25" stroke-linecap="round" stroke-linejoin="round"/>
<path d="M224.33 363.5L164.28 409.12" stroke="#263238" stroke-width="0.25" stroke-linecap="round" stroke-linejoin="round"/>
<path d="M234.01 363.5L173.96 409.12" stroke="#263238" stroke-width="0.25" stroke-linecap="round" stroke-linejoin="round"/>
<path d="M243.69 363.5L183.63 409.12" stroke="#263238" stroke-width="0.25" stroke-linecap="round" stroke-linejoin="round"/>
<path d="M143.79 372.99H239.85" stroke="#263238" stroke-width="0.25" stroke-linecap="round" stroke-linejoin="round"/>
<path d="M136.12 378.82H232.18" stroke="#263238" stroke-width="0.25" stroke-linecap="round" stroke-linejoin="round"/>
<path d="M128.45 384.65H224.51" stroke="#263238" stroke-width="0.25" stroke-linecap="round" stroke-linejoin="round"/>
<path d="M120.78 390.47H216.84" stroke="#263238" stroke-width="0.25" stroke-linecap="round" stroke-linejoin="round"/>
<path d="M113.11 396.3H209.17" stroke="#263238" stroke-width="0.25" stroke-linecap="round" stroke-linejoin="round"/>
<path d="M105.44 402.13H201.5" stroke="#263238" stroke-width="0.25" stroke-linecap="round" stroke-linejoin="round"/>
<path d="M393.36 301.99H291.81V305.72H393.36V301.99Z" fill="#A7A9A6"/>
<path d="M294.3 301.99H291.81V350.03H294.3V301.99Z" fill="#A7A9A6"/>
<path d="M393.36 301.99H291.81V350.28H393.36V301.99Z" stroke="#263238" stroke-width="0.25" stroke-linecap="round" stroke-linejoin="round"/>
<path d="M302.51 302.17V350.25" stroke="#263238" stroke-width="0.25" stroke-linecap="round" stroke-linejoin="round"/>
<path d="M312.71 302.17V350.25" stroke="#263238" stroke-width="0.25" stroke-linecap="round" stroke-linejoin="round"/>
<path d="M322.91 302.17V350.25" stroke="#263238" stroke-width="0.25" stroke-linecap="round" stroke-linejoin="round"/>
<path d="M333.11 302.17V350.25" stroke="#263238" stroke-width="0.25" stroke-linecap="round" stroke-linejoin="round"/>
<path d="M343.31 302.17V350.25" stroke="#263238" stroke-width="0.25" stroke-linecap="round" stroke-linejoin="round"/>
<path d="M353.51 302.17V350.25" stroke="#263238" stroke-width="0.25" stroke-linecap="round" stroke-linejoin="round"/>
<path d="M363.71 302.17V350.25" stroke="#263238" stroke-width="0.25" stroke-linecap="round" stroke-linejoin="round"/>
<path d="M373.9 302.17V350.25" stroke="#263238" stroke-width="0.25" stroke-linecap="round" stroke-linejoin="round"/>
<path d="M384.1 302.17V350.25" stroke="#263238" stroke-width="0.25" stroke-linecap="round" stroke-linejoin="round"/>
<path d="M291.98 312.17H393.23" stroke="#263238" stroke-width="0.25" stroke-linecap="round" stroke-linejoin="round"/>
<path d="M291.98 318.32H393.23" stroke="#263238" stroke-width="0.25" stroke-linecap="round" stroke-linejoin="round"/>
<path d="M291.98 324.46H393.23" stroke="#263238" stroke-width="0.25" stroke-linecap="round" stroke-linejoin="round"/>
<path d="M291.98 330.6H393.23" stroke="#263238" stroke-width="0.25" stroke-linecap="round" stroke-linejoin="round"/>
<path d="M291.98 336.74H393.23" stroke="#263238" stroke-width="0.25" stroke-linecap="round" stroke-linejoin="round"/>
<path d="M291.98 342.88H393.23" stroke="#263238" stroke-width="0.25" stroke-linecap="round" stroke-linejoin="round"/>
<path d="M359.74 332.81H355.51V342.69H359.74V332.81Z" fill="#263238" stroke="#263238" stroke-width="0.5" stroke-miterlimit="10"/>
<path d="M366.52 326.89H362.29V342.7H366.52V326.89Z" fill="#A7A9A6" stroke="#263238" stroke-width="0.5" stroke-miterlimit="10"/>
<path d="M373.29 317.01H369.06V342.7H373.29V317.01Z" fill="#263238" stroke="#263238" stroke-width="0.5" stroke-miterlimit="10"/>
<path d="M380.07 326.6H375.84V342.69H380.07V326.6Z" fill="#A7A9A6" stroke="#263238" stroke-width="0.5" stroke-miterlimit="10"/>
<path d="M386.84 317.01H382.61V342.7H386.84V317.01Z" fill="#263238" stroke="#263238" stroke-width="0.5" stroke-miterlimit="10"/>
<path d="M316.19 330.82V342.56C313.076 342.56 310.09 341.323 307.889 339.121C305.687 336.92 304.45 333.934 304.45 330.82C304.45 327.706 305.687 324.72 307.889 322.519C310.09 320.317 313.076 319.08 316.19 319.08V330.82Z" fill="#A7A9A6" stroke="#263238" stroke-width="0.5" stroke-miterlimit="10"/>
<path d="M316.19 330.82L327.35 327.19C327.83 328.657 328.017 330.204 327.898 331.743C327.78 333.282 327.358 334.782 326.659 336.158C325.959 337.534 324.995 338.758 323.822 339.76C322.648 340.763 321.288 341.524 319.82 342C318.65 342.392 317.424 342.588 316.19 342.58V330.82Z" fill="white" stroke="#263238" stroke-width="0.5" stroke-miterlimit="10"/>
<path d="M316.19 330.82V319.08C318.675 319.051 321.103 319.825 323.114 321.286C325.124 322.747 326.61 324.817 327.35 327.19L316.19 330.82Z" fill="#263238" stroke="#263238" stroke-width="0.5" stroke-miterlimit="10"/>
</svg>
