<svg width="550" height="590" viewBox="0 0 550 590" fill="none" xmlns="http://www.w3.org/2000/svg">
<g clip-path="url(#clip0_66_3870)">
<path d="M421.003 159.706C398.497 104.015 344.474 83.0457 301.849 120.439C285.204 135.027 274.819 158.244 254.438 167.56C235.315 176.297 211.09 173.725 190.41 178.457C146.374 188.47 87.0862 226.462 91.6092 285C93.5903 310.642 109.529 339.121 117.409 363.114C126.455 390.719 131.882 425.255 155.827 441.758C196.878 470.09 246.396 446.931 283.376 424.087C303.278 411.806 314.233 404.257 335.663 408.468C355.501 412.395 373.367 426.139 392.752 409.833C407.307 397.591 408.511 372.784 420.732 358.215C434.5 341.801 448.458 340.614 455.613 315.943C464.289 286.012 451.506 267.31 442.867 240.569C434.228 213.827 431.605 185.908 421.003 159.706Z" fill="#F9B375"/>
<g opacity="0.7">
<path d="M421.003 159.706C398.497 104.015 344.474 83.0457 301.849 120.439C285.204 135.027 274.819 158.244 254.438 167.56C235.315 176.297 211.09 173.725 190.41 178.457C146.374 188.47 87.0862 226.462 91.6092 285C93.5903 310.642 109.529 339.121 117.409 363.114C126.455 390.719 131.882 425.255 155.827 441.758C196.878 470.09 246.396 446.931 283.376 424.087C303.278 411.806 314.233 404.257 335.663 408.468C355.501 412.395 373.367 426.139 392.752 409.833C407.307 397.591 408.511 372.784 420.732 358.215C434.5 341.801 448.458 340.614 455.613 315.943C464.289 286.012 451.506 267.31 442.867 240.569C434.228 213.827 431.605 185.908 421.003 159.706Z" fill="white"/>
</g>
<path d="M249.743 488.261C326.971 488.261 389.577 484.028 389.577 478.807C389.577 473.586 326.971 469.353 249.743 469.353C172.515 469.353 109.909 473.586 109.909 478.807C109.909 484.028 172.515 488.261 249.743 488.261Z" fill="#B0EA99"/>
<path opacity="0.8" d="M249.743 488.261C326.971 488.261 389.577 484.028 389.577 478.807C389.577 473.586 326.971 469.353 249.743 469.353C172.515 469.353 109.909 473.586 109.909 478.807C109.909 484.028 172.515 488.261 249.743 488.261Z" fill="white"/>
<path d="M354.822 119.319H214.219C204.512 119.319 196.643 127.859 196.643 138.394V460.528C196.643 471.062 204.512 479.602 214.219 479.602H354.822C364.529 479.602 372.399 471.062 372.399 460.528V138.394C372.399 127.859 364.529 119.319 354.822 119.319Z" fill="#263238"/>
<path d="M364.583 158.882H204.45V440.04H364.583V158.882Z" fill="white" stroke="#263238" stroke-width="1.33739" stroke-miterlimit="10"/>
<path d="M308.725 219.828C322.093 234.335 322.093 257.856 308.725 272.363C295.357 286.87 273.684 286.87 260.316 272.363C246.948 257.856 246.948 234.335 260.316 219.828C273.684 205.321 295.357 205.321 308.725 219.828Z" fill="#E2FBDA" stroke="black"/>
<path d="M238.96 421.859V421.859L238.957 421.859C238.824 421.86 238.691 421.833 238.565 421.777C238.439 421.721 238.322 421.637 238.221 421.528C238.12 421.42 238.038 421.288 237.982 421.14C237.925 420.993 237.895 420.833 237.895 420.671L237.895 420.668C237.895 420.505 237.923 420.345 237.98 420.196C238.036 420.048 238.118 419.915 238.219 419.806C238.32 419.696 238.437 419.612 238.564 419.556C238.69 419.5 238.823 419.472 238.957 419.473V419.473H238.96H330.09C330.224 419.473 330.357 419.501 330.482 419.558L330.688 419.102L330.482 419.558C330.608 419.614 330.725 419.699 330.825 419.808C330.925 419.918 331.007 420.05 331.063 420.198C331.118 420.346 331.147 420.506 331.146 420.668V420.671C331.146 420.999 331.026 421.306 330.823 421.526C330.621 421.745 330.357 421.859 330.09 421.859H238.96Z" fill="#B0EA99" stroke="black"/>
<path d="M235.984 305.439H333.057C334.747 305.439 336.185 306.938 336.185 308.875V321.294C336.185 323.231 334.747 324.73 333.057 324.73H235.984C234.295 324.73 232.857 323.231 232.857 321.294V308.875C232.857 306.938 234.295 305.439 235.984 305.439Z" fill="#E2FBDA" stroke="black"/>
<path d="M235.984 343.391H333.057C334.747 343.391 336.185 344.89 336.185 346.828V359.246C336.185 361.183 334.747 362.683 333.057 362.683H235.984C234.295 362.683 232.857 361.183 232.857 359.246V346.828C232.857 344.89 234.295 343.391 235.984 343.391Z" fill="#E2FBDA" stroke="black"/>
<path d="M301.803 264.885L291.59 258.504V253.233C293.069 251.291 294.14 249.023 294.729 246.587C295.081 246.722 295.451 246.792 295.824 246.793C297.09 246.793 297.895 242.532 298.031 239.489C299.506 236.102 297.497 234.119 297.497 234.119C297.497 234.119 298.33 233.216 298.881 229.593C299.433 225.971 296.937 227.483 294.992 224.165C293.047 220.846 291.654 217.234 285.267 217.234C283.507 217.171 281.771 217.684 280.283 218.707C278.796 219.729 277.626 221.213 276.927 222.967C275.337 222.973 273.753 223.174 272.205 223.566C270.251 224.165 269.699 231.105 271.363 233.824C272.108 235.311 272.506 236.972 272.521 238.664C272.078 238.075 271.617 237.918 271.363 239.253C270.812 242.267 273.037 246.488 273.037 246.488L274.186 246.135C274.764 248.739 275.881 251.166 277.451 253.233V258.504L267.238 264.885C266.046 265.633 265.055 266.707 264.366 268.001C263.677 269.295 263.313 270.763 263.312 272.258V275.91C269.386 281.002 276.845 283.764 284.521 283.764C292.196 283.764 299.655 281.002 305.729 275.91V272.258C305.73 270.763 305.367 269.294 304.678 268C303.989 266.705 302.997 265.631 301.803 264.885Z" fill="#263238"/>
<path d="M245.573 358.137C245.339 358.133 245.115 358.031 244.949 357.852C244.86 357.766 244.789 357.66 244.74 357.541C244.692 357.423 244.668 357.294 244.668 357.165C244.671 356.988 244.718 356.815 244.804 356.664L246.432 353.837L243.257 353.945C243.138 353.953 243.018 353.934 242.905 353.888C242.793 353.842 242.691 353.771 242.606 353.68C242.458 353.5 242.377 353.268 242.377 353.027C242.377 352.786 242.458 352.554 242.606 352.374C242.689 352.279 242.791 352.206 242.903 352.158C243.016 352.111 243.137 352.09 243.257 352.099L246.387 352.227L244.777 349.409C244.689 349.256 244.642 349.079 244.641 348.899C244.64 348.769 244.665 348.641 244.713 348.523C244.762 348.404 244.833 348.298 244.922 348.212C245.088 348.033 245.312 347.931 245.546 347.927C245.7 347.928 245.851 347.977 245.98 348.067C246.11 348.157 246.214 348.286 246.279 348.438L247.826 351.471L249.354 348.457C249.427 348.296 249.538 348.16 249.677 348.063C249.816 347.966 249.976 347.913 250.141 347.907C250.256 347.908 250.369 347.935 250.473 347.985C250.577 348.036 250.671 348.11 250.747 348.202C250.913 348.389 251.004 348.639 251.001 348.899C251 349.068 250.96 349.233 250.883 349.38L249.246 352.227L252.421 352.099C252.541 352.09 252.662 352.111 252.775 352.158C252.887 352.206 252.989 352.279 253.072 352.374C253.226 352.548 253.311 352.781 253.307 353.022C253.307 353.265 253.223 353.5 253.072 353.68C252.987 353.771 252.885 353.842 252.773 353.888C252.66 353.934 252.541 353.953 252.421 353.945L249.228 353.837L250.82 356.635C250.909 356.791 250.956 356.971 250.955 357.155C250.955 357.415 250.86 357.665 250.69 357.849C250.521 358.033 250.291 358.137 250.051 358.137C249.896 358.135 249.745 358.083 249.616 357.989C249.487 357.895 249.387 357.762 249.327 357.607L247.816 354.662L246.315 357.607C246.248 357.761 246.144 357.892 246.013 357.985C245.882 358.079 245.73 358.131 245.573 358.137Z" fill="#263238"/>
<path d="M260.246 358.137C260.012 358.133 259.788 358.031 259.622 357.852C259.533 357.766 259.462 357.66 259.413 357.541C259.365 357.423 259.34 357.294 259.341 357.165C259.344 356.988 259.391 356.815 259.477 356.664L261.105 353.837L257.939 353.945C257.818 353.951 257.697 353.931 257.584 353.885C257.471 353.839 257.367 353.77 257.279 353.68C257.159 353.545 257.079 353.375 257.049 353.19C257.019 353.006 257.042 352.816 257.113 352.646C257.184 352.475 257.301 352.332 257.448 352.234C257.596 352.137 257.767 352.09 257.939 352.099L261.06 352.227L259.45 349.409C259.362 349.256 259.315 349.079 259.314 348.899C259.313 348.769 259.338 348.641 259.386 348.523C259.434 348.404 259.505 348.298 259.594 348.212C259.761 348.033 259.984 347.931 260.219 347.927C260.373 347.928 260.523 347.977 260.653 348.067C260.783 348.157 260.886 348.286 260.951 348.438L262.498 351.471L264.027 348.457C264.1 348.296 264.211 348.16 264.35 348.063C264.489 347.966 264.649 347.913 264.814 347.907C264.928 347.907 265.042 347.933 265.146 347.984C265.251 348.035 265.344 348.109 265.42 348.202C265.504 348.294 265.57 348.403 265.615 348.522C265.66 348.642 265.683 348.77 265.682 348.899C265.679 349.069 265.636 349.234 265.556 349.38L263.918 352.227L267.103 352.119C267.222 352.11 267.341 352.13 267.452 352.178C267.563 352.225 267.663 352.299 267.745 352.394C267.899 352.568 267.984 352.801 267.98 353.042C267.98 353.285 267.896 353.519 267.745 353.699C267.661 353.791 267.561 353.862 267.45 353.907C267.339 353.953 267.221 353.973 267.103 353.965L263.9 353.857L265.492 356.654C265.582 356.811 265.629 356.991 265.628 357.175C265.628 357.435 265.533 357.685 265.363 357.869C265.194 358.053 264.963 358.156 264.724 358.156C264.568 358.154 264.417 358.103 264.289 358.009C264.16 357.914 264.06 357.782 264 357.626L262.489 354.681L260.988 357.626C260.918 357.777 260.813 357.904 260.682 357.994C260.551 358.083 260.4 358.133 260.246 358.137Z" fill="#263238"/>
<path d="M274.927 358.137C274.69 358.136 274.463 358.033 274.294 357.852C274.205 357.766 274.134 357.66 274.086 357.541C274.038 357.423 274.013 357.294 274.014 357.165C274.017 356.988 274.063 356.815 274.15 356.664L275.778 353.837L272.612 353.945C272.441 353.952 272.273 353.904 272.127 353.807C271.982 353.71 271.866 353.569 271.796 353.4C271.725 353.232 271.702 353.044 271.729 352.861C271.757 352.679 271.834 352.509 271.951 352.374C272.037 352.28 272.14 352.206 272.254 352.159C272.368 352.111 272.49 352.091 272.612 352.099L275.733 352.227L274.122 349.409C274.035 349.256 273.988 349.079 273.987 348.899C273.99 348.77 274.016 348.643 274.064 348.525C274.112 348.407 274.181 348.301 274.267 348.212C274.436 348.03 274.663 347.928 274.9 347.927C275.053 347.93 275.202 347.979 275.33 348.07C275.458 348.16 275.56 348.287 275.624 348.438L277.171 351.471L278.7 348.457C278.772 348.296 278.884 348.16 279.023 348.063C279.161 347.966 279.322 347.913 279.487 347.907C279.601 347.907 279.714 347.933 279.819 347.984C279.924 348.035 280.017 348.109 280.093 348.202C280.177 348.294 280.243 348.403 280.288 348.522C280.333 348.642 280.356 348.77 280.355 348.899C280.352 349.069 280.308 349.234 280.228 349.38L278.591 352.227L281.775 352.099C281.892 352.087 282.011 352.101 282.122 352.142C282.233 352.183 282.335 352.25 282.421 352.337C282.507 352.425 282.574 352.531 282.619 352.649C282.664 352.767 282.684 352.895 282.68 353.022C282.682 353.264 282.601 353.498 282.454 353.68C282.369 353.771 282.266 353.842 282.154 353.888C282.042 353.934 281.922 353.953 281.802 353.945L278.609 353.837L280.192 356.635C280.281 356.791 280.329 356.971 280.328 357.155C280.325 357.284 280.299 357.411 280.251 357.529C280.203 357.647 280.134 357.753 280.048 357.842C279.969 357.934 279.874 358.008 279.768 358.058C279.662 358.109 279.548 358.136 279.432 358.137C279.279 358.134 279.129 358.082 279.002 357.988C278.875 357.894 278.776 357.761 278.718 357.607L277.198 354.662L275.696 357.607C275.629 357.766 275.52 357.9 275.384 357.994C275.247 358.088 275.089 358.138 274.927 358.137Z" fill="#263238"/>
<path d="M289.6 358.137C289.363 358.136 289.135 358.033 288.967 357.852C288.797 357.671 288.699 357.424 288.696 357.165C288.693 356.988 288.737 356.815 288.822 356.664L290.45 353.837L287.284 353.945C287.164 353.951 287.043 353.931 286.929 353.885C286.816 353.839 286.712 353.77 286.624 353.68C286.476 353.5 286.395 353.268 286.395 353.027C286.395 352.786 286.476 352.554 286.624 352.374C286.711 352.283 286.815 352.211 286.928 352.164C287.042 352.117 287.163 352.095 287.284 352.099L290.414 352.227L288.813 349.409C288.726 349.256 288.679 349.079 288.677 348.899C288.68 348.77 288.707 348.643 288.755 348.525C288.803 348.407 288.872 348.301 288.958 348.212C289.126 348.03 289.354 347.928 289.591 347.927C289.745 347.928 289.896 347.977 290.026 348.067C290.155 348.157 290.259 348.286 290.324 348.438L291.862 351.471L293.39 348.457C293.463 348.296 293.575 348.16 293.713 348.063C293.852 347.966 294.013 347.913 294.177 347.907C294.292 347.907 294.405 347.933 294.51 347.984C294.614 348.035 294.708 348.109 294.784 348.202C294.867 348.294 294.934 348.403 294.979 348.522C295.024 348.642 295.047 348.77 295.046 348.899C295.043 349.069 294.999 349.234 294.919 349.38L293.282 352.227L296.466 352.099C296.583 352.087 296.701 352.101 296.813 352.142C296.924 352.183 297.026 352.25 297.112 352.337C297.198 352.425 297.265 352.531 297.31 352.649C297.354 352.767 297.375 352.895 297.371 353.022C297.373 353.264 297.292 353.498 297.145 353.68C297.059 353.771 296.957 353.842 296.845 353.888C296.733 353.934 296.613 353.953 296.493 353.945L293.3 353.837L294.883 356.635C294.972 356.791 295.019 356.971 295.019 357.155C295.02 357.285 294.995 357.413 294.947 357.531C294.898 357.65 294.827 357.756 294.738 357.842C294.66 357.934 294.564 358.008 294.459 358.058C294.353 358.109 294.239 358.136 294.123 358.137C293.969 358.134 293.82 358.082 293.693 357.988C293.566 357.894 293.467 357.761 293.409 357.607L291.889 354.662L290.387 357.607C290.318 357.769 290.207 357.906 290.067 358C289.927 358.094 289.765 358.142 289.6 358.137Z" fill="#263238"/>
<path d="M304.273 358.137C304.036 358.136 303.808 358.033 303.64 357.852C303.5 357.698 303.41 357.498 303.386 357.283C303.361 357.068 303.403 356.851 303.504 356.664L305.123 353.837L301.957 353.945C301.836 353.951 301.716 353.931 301.602 353.885C301.489 353.839 301.385 353.77 301.297 353.68C301.149 353.5 301.068 353.268 301.068 353.027C301.068 352.786 301.149 352.554 301.297 352.374C301.384 352.283 301.488 352.211 301.601 352.164C301.715 352.117 301.836 352.095 301.957 352.099L305.087 352.227L303.477 349.409C303.389 349.256 303.342 349.079 303.341 348.899C303.345 348.64 303.442 348.393 303.612 348.212C303.781 348.03 304.008 347.928 304.246 347.927C304.4 347.928 304.551 347.977 304.68 348.067C304.81 348.158 304.913 348.286 304.978 348.438L306.516 351.471L308.045 348.457C308.118 348.296 308.229 348.16 308.368 348.063C308.507 347.966 308.667 347.913 308.832 347.907C308.948 347.907 309.063 347.933 309.169 347.983C309.275 348.034 309.37 348.109 309.447 348.202C309.613 348.389 309.704 348.639 309.7 348.899C309.697 349.069 309.654 349.234 309.574 349.38L307.937 352.227L311.121 352.099C311.238 352.087 311.356 352.101 311.467 352.142C311.579 352.183 311.681 352.25 311.767 352.337C311.852 352.425 311.92 352.531 311.964 352.649C312.009 352.767 312.03 352.895 312.025 353.022C312.027 353.264 311.947 353.498 311.799 353.68C311.714 353.771 311.612 353.842 311.5 353.888C311.387 353.934 311.268 353.953 311.148 353.945L307.955 353.837L309.538 356.635C309.627 356.791 309.674 356.971 309.673 357.155C309.674 357.285 309.65 357.413 309.601 357.531C309.553 357.65 309.482 357.756 309.393 357.842C309.314 357.934 309.219 358.008 309.113 358.058C309.008 358.109 308.893 358.136 308.778 358.137C308.624 358.134 308.474 358.082 308.347 357.988C308.22 357.894 308.121 357.761 308.063 357.607L306.543 354.662L305.042 357.607C304.974 357.766 304.866 357.9 304.729 357.994C304.593 358.088 304.434 358.138 304.273 358.137Z" fill="#263238"/>
<path d="M318.946 358.137C318.711 358.133 318.488 358.031 318.321 357.852C318.232 357.766 318.161 357.66 318.113 357.541C318.065 357.423 318.04 357.294 318.041 357.165C318.044 356.988 318.091 356.815 318.177 356.664L319.796 353.837L316.63 353.945C316.513 353.954 316.396 353.938 316.286 353.895C316.176 353.853 316.075 353.787 315.99 353.7C315.905 353.613 315.838 353.508 315.792 353.391C315.746 353.275 315.724 353.149 315.725 353.022C315.725 352.902 315.746 352.783 315.788 352.672C315.83 352.561 315.891 352.459 315.969 352.374C316.053 352.279 316.154 352.206 316.267 352.158C316.379 352.111 316.5 352.091 316.621 352.099L319.751 352.227L318.14 349.409C318.053 349.256 318.006 349.079 318.005 348.899C318.008 348.64 318.106 348.393 318.276 348.212C318.445 348.03 318.672 347.928 318.909 347.927C319.063 347.928 319.214 347.977 319.344 348.067C319.474 348.158 319.577 348.286 319.642 348.438L321.18 351.471L322.718 348.457C322.79 348.298 322.9 348.163 323.037 348.066C323.174 347.969 323.332 347.914 323.496 347.907C323.612 347.907 323.726 347.933 323.832 347.983C323.938 348.034 324.033 348.109 324.111 348.202C324.277 348.389 324.368 348.639 324.364 348.899C324.364 349.068 324.323 349.233 324.247 349.38L322.609 352.227L325.784 352.099C325.905 352.091 326.026 352.111 326.138 352.158C326.251 352.206 326.352 352.279 326.436 352.374C326.59 352.548 326.674 352.781 326.671 353.022C326.67 353.265 326.586 353.5 326.436 353.68C326.35 353.771 326.248 353.842 326.136 353.888C326.024 353.934 325.904 353.953 325.784 353.945L322.591 353.837L324.174 356.635C324.263 356.791 324.31 356.971 324.31 357.155C324.306 357.414 324.209 357.661 324.038 357.842C323.874 358.025 323.65 358.131 323.414 358.137C323.26 358.134 323.111 358.082 322.984 357.988C322.857 357.894 322.758 357.761 322.7 357.607L321.18 354.662L319.678 357.607C319.613 357.76 319.51 357.891 319.381 357.984C319.252 358.078 319.101 358.131 318.946 358.137Z" fill="#263238"/>
<g style="mix-blend-mode:multiply">
<path d="M204.95 169.642V159.755H364.083V169.642H204.95Z" fill="#B0EA99"/>
<path d="M204.95 169.642V159.755H364.083V169.642H204.95Z" stroke="black"/>
</g>
<path d="M301.93 139.199H267.103C266.474 139.199 265.871 138.928 265.427 138.445C264.982 137.963 264.733 137.309 264.733 136.627C264.733 135.944 264.982 135.29 265.427 134.808C265.871 134.326 266.474 134.055 267.103 134.055H301.93C302.559 134.055 303.161 134.326 303.606 134.808C304.05 135.29 304.3 135.944 304.3 136.627C304.3 137.309 304.05 137.963 303.606 138.445C303.161 138.928 302.559 139.199 301.93 139.199Z" fill="#B0EA99" stroke="#263238" stroke-width="1.33739" stroke-linecap="round" stroke-linejoin="round"/>
<path d="M294.015 455.924C294.016 453.884 293.461 451.89 292.418 450.193C291.375 448.497 289.891 447.174 288.155 446.392C286.419 445.611 284.509 445.406 282.665 445.804C280.822 446.201 279.129 447.183 277.8 448.625C276.471 450.067 275.566 451.905 275.2 453.905C274.834 455.906 275.023 457.979 275.743 459.863C276.463 461.747 277.682 463.357 279.245 464.489C280.808 465.62 282.646 466.224 284.525 466.222C287.041 466.219 289.454 465.133 291.233 463.203C293.012 461.272 294.012 458.654 294.015 455.924Z" fill="#B0EA99"/>
<path d="M289.338 450.701H279.713V461.146H289.338V450.701Z" fill="#B0EA99" stroke="#263238" stroke-width="1.33739" stroke-linecap="round" stroke-linejoin="round"/>
</g>
<defs>
<clipPath id="clip0_66_3870">
<rect width="550" height="590" fill="white"/>
</clipPath>
</defs>
</svg>
