<svg width="537" height="351" viewBox="0 0 537 351" fill="none" xmlns="http://www.w3.org/2000/svg">
<g clip-path="url(#clip0_49_3192)">
<path d="M375.078 -2.68366e-06L160.176 6.07622L168.988 325.445L383.891 319.369L375.078 -2.68366e-06Z" fill="#E0E0E0"/>
<path d="M400.534 30.3196L186.324 11.845L159.529 330.185L373.739 348.66L400.534 30.3196Z" fill="#EBEBEB"/>
<path d="M157.703 30.6648C157.293 31.4022 156.818 32.1006 156.284 32.7515C155.357 34.0018 154.047 35.7083 152.545 37.55C151.042 39.3917 149.649 41.0222 148.614 42.1796C148.086 42.8356 147.499 43.4408 146.861 43.9876C147.308 43.2734 147.816 42.6006 148.38 41.9769L152.211 37.2712L156.042 32.5572C156.542 31.8805 157.098 31.2475 157.703 30.6648Z" fill="#E0E0E0"/>
<path d="M147.896 134.552C150.868 139.344 154.368 143.78 158.329 147.774L147.896 134.552Z" fill="white"/>
<path d="M77.8308 147.393L88.2634 134.366L77.8308 147.393Z" fill="white"/>
<path d="M88.2634 134.383C86.6949 136.689 85.0095 138.911 83.214 141.04C81.5312 143.252 79.7343 145.373 77.8308 147.393C79.4007 145.091 81.0861 142.872 82.8802 140.745C84.5643 138.531 86.3612 136.408 88.2634 134.383Z" fill="#E0E0E0"/>
<path d="M77.8475 30.6648C79.6426 32.6115 81.331 34.6562 82.9052 36.7897C84.5946 38.8321 86.1716 40.9671 87.6291 43.185C85.8298 41.2398 84.1385 39.195 82.5631 37.06C80.8746 35.019 79.3003 32.8839 77.8475 30.6648Z" fill="#E0E0E0"/>
<path d="M136.027 22.3105H373.246C375.627 22.3105 377.91 23.267 379.594 24.97C381.278 26.6729 382.225 28.9829 382.227 31.3923V345.327C382.227 347.738 381.281 350.05 379.597 351.755C377.912 353.459 375.628 354.417 373.246 354.417H136.027V22.3105Z" fill="#F9B375"/>
<g opacity="0.3">
<path d="M136.159 22.7791H373.186C375.564 22.7791 377.845 23.7353 379.527 25.4377C381.21 27.1401 382.156 29.4493 382.159 31.858V345.692C382.159 348.102 381.213 350.413 379.53 352.117C377.848 353.822 375.565 354.779 373.186 354.779H136.159V22.7791Z" fill="black"/>
</g>
<path d="M375.408 32.5919H243.791V354.409H375.408V32.5919Z" fill="#E0E0E0"/>
<path d="M135 19.6915H355.469C357.851 19.6915 360.135 20.6492 361.819 22.354C363.504 24.0588 364.45 26.3709 364.45 28.7818V345.327C364.45 347.738 363.504 350.05 361.819 351.755C360.135 353.459 357.851 354.417 355.469 354.417H135V19.6915Z" fill="#F9B375"/>
<path d="M158.586 355.017C158.461 355.017 158.369 279.946 158.369 187.363C158.369 94.779 158.461 19.6915 158.586 19.6915C158.711 19.6915 158.803 94.7452 158.803 187.363C158.803 279.98 158.703 355.017 158.586 355.017Z" fill="#263238"/>
<path d="M164.779 355.017C164.662 355.017 164.562 279.946 164.562 187.363C164.562 94.779 164.662 19.6915 164.779 19.6915C164.895 19.6915 164.996 94.7452 164.996 187.363C164.996 279.98 164.895 355.017 164.779 355.017Z" fill="#263238"/>
<path d="M219.537 143.956L219.479 133.472L214.471 142.004H212.009L207.001 133.751V143.956H201.894V124.17H206.442L213.303 135.592L219.98 124.17H224.528L224.587 143.956H219.537Z" fill="white"/>
<path d="M241.629 140.104H233.333L231.797 143.947H226.156L234.785 124.162H240.235L248.89 143.947H243.14L241.629 140.104ZM240.01 135.989L237.506 129.653L235.002 135.989H240.01Z" fill="white"/>
<path d="M269.088 124.17V143.956H264.531L255.868 133.413V143.956H250.451V124.17H255.033L263.663 134.714V124.17H269.088Z" fill="white"/>
<path d="M272.827 135.136V124.153H278.402V134.95C278.402 138.329 279.796 139.698 282.116 139.698C284.436 139.698 285.797 138.346 285.797 134.95V124.17H291.247V135.153C291.247 141.067 287.841 144.37 282.066 144.37C276.29 144.37 272.827 141.05 272.827 135.136Z" fill="white"/>
<path d="M307.613 140.104H299.342L297.806 143.947H292.165L300.794 124.162H306.244L314.899 143.947H309.149L307.613 140.104ZM305.994 135.981L303.49 129.645L300.986 135.981H305.994Z" fill="white"/>
<path d="M316.485 124.17H322.01V139.521H331.341V143.956H316.485V124.17Z" fill="white"/>
<path d="M210.323 106.725H211.475V117.775H210.323V106.725Z" fill="white"/>
<path d="M224.153 106.725V117.775H223.201L216.19 108.845V117.817H215.03V106.725H215.982L223.026 115.688V106.725H224.153Z" fill="white"/>
<path d="M226.656 116.449L227.107 115.553C228.107 116.43 229.39 116.905 230.713 116.888C232.757 116.888 233.65 116.043 233.65 114.936C233.65 111.904 226.923 113.762 226.923 109.673C226.923 108.051 228.175 106.64 230.946 106.64C232.146 106.626 233.323 106.967 234.335 107.62L233.942 108.558C233.05 107.97 232.011 107.65 230.946 107.637C228.952 107.637 228.059 108.541 228.059 109.648C228.059 112.672 234.785 110.847 234.785 114.869C234.785 116.499 233.508 117.885 230.713 117.885C229.23 117.937 227.783 117.425 226.656 116.449Z" fill="white"/>
<path d="M239.284 107.73H235.445V106.725H244.275V107.73H240.436V117.775H239.284V107.73Z" fill="white"/>
<path d="M253.572 117.775L251.069 114.218C250.792 114.251 250.513 114.268 250.234 114.269H247.271V117.775H246.119V106.725H250.201C252.98 106.725 254.666 108.144 254.666 110.51C254.711 111.293 254.486 112.067 254.03 112.701C253.573 113.334 252.912 113.787 252.162 113.982L254.833 117.775H253.572ZM253.514 110.51C253.514 108.744 252.354 107.73 250.176 107.73H247.271V113.272H250.176C252.354 113.272 253.514 112.225 253.514 110.535V110.51Z" fill="white"/>
<path d="M257.303 113.069V106.742H258.455V113.027C258.455 115.646 259.673 116.846 261.793 116.846C263.913 116.846 265.132 115.646 265.132 113.027V106.742H266.258V113.069C266.258 116.246 264.589 117.885 261.777 117.885C258.964 117.885 257.303 116.229 257.303 113.069Z" fill="white"/>
<path d="M268.787 112.225C268.778 111.469 268.92 110.718 269.207 110.02C269.493 109.322 269.917 108.69 270.453 108.163C270.989 107.637 271.626 107.226 272.324 106.957C273.022 106.688 273.766 106.566 274.513 106.598C275.254 106.569 275.992 106.698 276.681 106.976C277.369 107.254 277.993 107.675 278.51 108.212L277.776 108.955C277.357 108.522 276.853 108.182 276.297 107.957C275.741 107.732 275.145 107.625 274.546 107.646C273.346 107.646 272.196 108.128 271.347 108.987C270.499 109.845 270.023 111.01 270.023 112.225C270.023 113.439 270.499 114.604 271.347 115.462C272.196 116.321 273.346 116.803 274.546 116.803C275.146 116.822 275.743 116.714 276.3 116.486C276.856 116.257 277.359 115.914 277.776 115.477L278.51 116.221C277.991 116.76 277.365 117.184 276.673 117.463C275.982 117.743 275.24 117.872 274.496 117.843C273.751 117.875 273.008 117.753 272.311 117.484C271.615 117.215 270.98 116.805 270.445 116.279C269.911 115.753 269.488 115.122 269.203 114.425C268.918 113.728 268.776 112.979 268.787 112.225Z" fill="white"/>
<path d="M282.959 107.73H279.12V106.725H287.95V107.73H284.111V117.775H282.959V107.73Z" fill="white"/>
<path d="M289.794 106.725H290.921V117.775H289.769L289.794 106.725Z" fill="white"/>
<path d="M293.533 112.225C293.497 111.07 293.802 109.93 294.409 108.952C295.016 107.974 295.897 107.201 296.941 106.733C297.984 106.264 299.142 106.122 300.266 106.324C301.39 106.526 302.428 107.063 303.249 107.866C304.07 108.668 304.635 109.701 304.872 110.831C305.11 111.961 305.009 113.137 304.582 114.209C304.155 115.28 303.422 116.199 302.477 116.846C301.532 117.493 300.417 117.84 299.275 117.843C298.529 117.876 297.783 117.755 297.084 117.487C296.386 117.219 295.748 116.809 295.211 116.284C294.673 115.758 294.247 115.127 293.959 114.429C293.671 113.731 293.526 112.981 293.533 112.225ZM303.849 112.225C303.862 111.302 303.604 110.396 303.107 109.623C302.61 108.85 301.897 108.244 301.058 107.882C300.22 107.521 299.294 107.42 298.399 107.593C297.503 107.766 296.679 108.205 296.031 108.853C295.383 109.502 294.941 110.331 294.76 111.236C294.579 112.14 294.669 113.078 295.017 113.931C295.365 114.784 295.955 115.512 296.714 116.024C297.472 116.535 298.364 116.807 299.275 116.803C299.877 116.824 300.477 116.721 301.038 116.498C301.599 116.276 302.109 115.941 302.537 115.512C302.966 115.083 303.303 114.571 303.528 114.005C303.754 113.44 303.863 112.834 303.849 112.225Z" fill="white"/>
<path d="M316.719 106.725V117.775H315.767L308.748 108.845V117.817H307.613V106.725H308.565L315.6 115.688V106.725H316.719Z" fill="white"/>
<g opacity="0.3">
<path d="M164.787 19.6915H158.586V355.017H164.787V19.6915Z" fill="#060165"/>
</g>
<path d="M295.094 58.0041V19.6915H331.55V58.7137L313.672 76.8097L295.094 58.0041Z" fill="#7887E6"/>
<path d="M367.705 32.5919C367.822 32.5919 367.922 103.861 367.922 191.756C367.922 279.651 367.822 350.937 367.705 350.937C367.588 350.937 367.488 279.685 367.488 191.756C367.488 103.827 367.605 32.5919 367.705 32.5919Z" fill="#263238"/>
<path d="M371.46 32.5919C371.577 32.5919 371.677 103.861 371.677 191.756C371.677 279.651 371.577 350.937 371.46 350.937C371.344 350.937 371.243 279.685 371.243 191.756C371.243 103.827 371.335 32.5919 371.46 32.5919Z" fill="#263238"/>
<path d="M367.73 78.8964H376.86L385.206 85.3002L377.72 92.8697H367.73V78.8964Z" fill="#7887E6"/>
<path d="M388.703 106.336H371.46V117.961H388.703V106.336Z" fill="#FB8822"/>
<g opacity="0.3">
<path d="M304.759 244.472L294.46 254.61C293.952 255.109 293.273 255.388 292.565 255.388C291.858 255.388 291.178 255.109 290.671 254.61L219.729 185.876C219.207 185.369 218.905 184.674 218.89 183.942C218.874 183.21 219.146 182.502 219.646 181.973L230.395 170.602C230.645 170.338 230.944 170.127 231.275 169.981C231.606 169.835 231.963 169.757 232.324 169.752C232.685 169.746 233.043 169.813 233.378 169.949C233.713 170.085 234.019 170.286 234.276 170.542L304.792 240.485C305.057 240.744 305.266 241.056 305.409 241.4C305.551 241.744 305.622 242.113 305.619 242.486C305.616 242.859 305.538 243.227 305.39 243.569C305.242 243.91 305.028 244.218 304.759 244.472Z" fill="#060165"/>
</g>
<path d="M238.691 175.214C237.846 176.407 236.89 177.516 235.837 178.526C234.883 179.634 233.823 180.644 232.674 181.542C233.517 180.347 234.473 179.238 235.528 178.23C236.48 177.12 237.54 176.11 238.691 175.214Z" fill="#263238"/>
<path d="M249.967 186.205C248.173 188.514 246.157 190.636 243.949 192.541C244.791 191.343 245.747 190.231 246.804 189.221C247.761 188.116 248.82 187.106 249.967 186.205Z" fill="#263238"/>
<path d="M244.075 180.241C242.883 181.794 241.58 183.257 240.177 184.617C238.884 186.071 237.489 187.429 236.004 188.681C237.197 187.131 238.5 185.671 239.902 184.313C241.191 182.853 242.586 181.492 244.075 180.241Z" fill="#263238"/>
<path d="M255.667 191.975C254.477 193.527 253.174 194.987 251.77 196.343C250.478 197.801 249.083 199.162 247.597 200.415C250.085 197.4 252.791 194.576 255.692 191.967L255.667 191.975Z" fill="#263238"/>
<path d="M260.992 197.374C260.152 198.571 259.196 199.681 258.138 200.686C257.185 201.792 256.129 202.802 254.983 203.702C255.821 202.505 256.774 201.396 257.829 200.39C258.783 199.282 259.842 198.272 260.992 197.374Z" fill="#263238"/>
<path d="M266.717 203.144C265.524 204.69 264.224 206.15 262.828 207.512C261.539 208.969 260.144 210.327 258.655 211.575C259.851 210.028 261.153 208.568 262.553 207.208C263.841 205.752 265.233 204.393 266.717 203.144Z" fill="#263238"/>
<path d="M272.026 208.534C270.232 210.842 268.216 212.965 266.008 214.87C266.85 213.671 267.806 212.559 268.862 211.55C269.814 210.44 270.874 209.429 272.026 208.534Z" fill="#263238"/>
<path d="M277.717 214.304C276.532 215.857 275.232 217.317 273.828 218.672C272.54 220.133 271.145 221.494 269.655 222.744C270.847 221.19 272.149 219.728 273.553 218.368C274.843 216.914 276.235 215.556 277.717 214.304Z" fill="#263238"/>
<path d="M283.051 219.694C281.257 222.002 279.241 224.125 277.033 226.03C277.877 224.833 278.833 223.722 279.887 222.71C280.847 221.607 281.906 220.598 283.051 219.694Z" fill="#263238"/>
<path d="M288.751 225.43C287.56 226.984 286.257 228.446 284.853 229.806C283.56 231.26 282.166 232.618 280.68 233.87C281.872 232.322 283.172 230.862 284.57 229.502C285.863 228.043 287.261 226.682 288.751 225.43Z" fill="#263238"/>
<path d="M294.076 230.862C293.24 232.061 292.287 233.171 291.23 234.174C290.273 235.28 289.214 236.29 288.067 237.19C288.906 235.992 289.863 234.883 290.921 233.878C291.873 232.772 292.93 231.762 294.076 230.862Z" fill="#263238"/>
<g opacity="0.3">
<path d="M267.31 198.59L277.242 208.019L283.919 201.37C283.919 201.37 294.66 204.749 301.571 197.027C307.847 190.041 305.977 179.878 305.977 179.878L294.41 190.21L284.62 180.3L294.944 169.461C291.707 168.611 288.299 168.704 285.113 169.73C281.926 170.755 279.091 172.671 276.933 175.256C270.724 182.378 273.928 191.739 273.928 191.739L267.31 198.59Z" fill="#060165"/>
</g>
<g opacity="0.3">
<path d="M254.975 226.106C254.732 225.667 245.059 216.703 245.059 216.703L238.766 222.938C238.766 222.938 226.957 220.556 221.115 227.28C214.571 234.808 216.708 244.43 216.708 244.43L228.275 234.098L238.065 244.016L227.741 254.847C230.975 255.699 234.38 255.61 237.566 254.591C240.752 253.571 243.589 251.663 245.752 249.085C251.962 241.963 248.757 232.594 248.757 232.594L254.975 226.106Z" fill="#060165"/>
</g>
<path d="M336.666 317.389C336.666 317.516 305.334 317.608 266.701 317.608C228.067 317.608 196.727 317.516 196.727 317.389C196.727 317.262 228.05 317.169 266.701 317.169C305.351 317.169 336.666 317.271 336.666 317.389Z" fill="#7887E6"/>
<path d="M313.322 324.139C313.322 324.257 292.715 324.359 267.31 324.359C241.905 324.359 221.29 324.257 221.29 324.139C221.29 324.021 241.896 323.919 267.31 323.919C292.724 323.919 313.322 324.012 313.322 324.139Z" fill="#7887E6"/>
<path d="M272.209 330.619H261.184V341.779H272.209V330.619Z" fill="#7887E6"/>
</g>
<defs>
<clipPath id="clip0_49_3192">
<rect width="537" height="351" fill="white"/>
</clipPath>
</defs>
</svg>
