<svg width="400" height="437" viewBox="0 0 400 437" fill="none" xmlns="http://www.w3.org/2000/svg">
<g clip-path="url(#clip0_66_3936)">
<path d="M337.479 90.4758C314.859 28.6733 260.562 5.40343 217.721 46.8992C200.992 63.0879 190.555 88.8526 170.071 99.1911C150.851 108.887 126.503 106.033 105.719 111.284C61.4597 122.396 1.87177 164.556 6.41769 229.518C8.4088 257.973 24.4286 289.577 32.3476 316.203C41.4395 346.837 46.8946 385.162 70.9607 403.475C112.219 434.916 161.988 409.217 199.156 383.866C219.158 370.237 230.168 361.86 251.707 366.533C271.645 370.891 289.601 386.143 309.085 368.048C323.714 354.463 324.923 326.933 337.206 310.766C351.044 292.551 365.073 291.233 372.264 263.856C380.984 230.64 368.137 209.887 359.454 180.211C350.771 150.535 348.135 119.552 337.479 90.4758Z" fill="#FFDDBE"/>
<path d="M176.072 32.8464C175.868 32.6401 177.901 29.8816 180.602 26.7105C183.303 23.5394 185.674 21.1393 185.868 21.3565C186.061 21.5737 184.038 24.3213 181.338 27.4924C178.637 30.6636 176.265 33.0419 176.072 32.8464Z" fill="white"/>
<path d="M185.868 32.8465C185.674 33.0637 183.312 30.6745 180.602 27.4925C177.891 24.3105 175.868 21.5738 176.072 21.3566C176.275 21.1394 178.627 23.5286 181.337 26.7106C184.048 29.8926 186.071 32.6401 185.868 32.8465Z" fill="white"/>
<path d="M311.604 90.4304L311.449 89.9018L309.31 82.5931L309.31 82.5926C305.443 69.3336 293.185 62.415 282.008 66.8339C270.788 71.2699 264.724 85.7533 268.597 99.0365L311.604 90.4304ZM311.604 90.4304L312.115 90.2255L317.096 88.2289C317.096 88.2287 317.097 88.2285 317.098 88.2282C317.975 87.8862 318.903 87.7465 319.827 87.8159C320.752 87.8854 321.657 88.1633 322.489 88.6355C323.321 89.108 324.063 89.766 324.671 90.5733C325.278 91.3808 325.736 92.3203 326.015 93.3365L326.015 93.3365L326.017 93.3441L339.898 140.9L339.9 140.905C340.534 142.993 340.421 145.276 339.587 147.27C338.754 149.262 337.274 150.797 335.472 151.571L283.821 172.298C282.941 172.628 282.012 172.756 281.09 172.676C280.165 172.595 279.262 172.307 278.433 171.825C277.605 171.344 276.867 170.677 276.266 169.864C275.664 169.049 275.213 168.105 274.941 167.086L274.941 167.086L274.938 167.075L261.066 119.519L261.065 119.516C260.447 117.448 260.562 115.192 261.386 113.221C262.209 111.252 263.668 109.731 265.445 108.956L270.443 106.95L270.864 106.781L270.736 106.345L268.597 99.037L311.604 90.4304ZM284.868 76.925L284.859 76.9287L284.85 76.9327C281.641 78.3157 279.051 81.0301 277.605 84.4892C276.16 87.9469 275.964 91.8936 277.056 95.5073C277.057 95.5081 277.057 95.509 277.057 95.5099L279.185 102.814L279.34 103.343L279.852 103.138L302.687 93.9721L303.107 93.8033L302.981 93.3682L300.852 86.0642C300.37 84.2823 299.573 82.6242 298.505 81.1895C297.436 79.7534 296.117 78.5697 294.625 77.7121C293.133 76.8543 291.499 76.341 289.82 76.2054C288.142 76.0697 286.458 76.315 284.868 76.925ZM310.599 149.569L307.147 137.74C308.61 136.203 309.66 134.243 310.182 132.082C310.728 129.821 310.675 127.432 310.029 125.204C309.641 123.773 309 122.441 308.142 121.288C307.282 120.134 306.221 119.182 305.02 118.492C303.819 117.801 302.503 117.388 301.151 117.278C299.799 117.169 298.442 117.366 297.162 117.856L297.153 117.86L297.143 117.864C294.561 118.976 292.479 121.157 291.317 123.934C290.155 126.708 289.996 129.875 290.869 132.776C291.483 134.974 292.682 136.918 294.316 138.344C295.86 139.691 297.722 140.514 299.679 140.709L303.152 152.463C303.153 152.464 303.153 152.465 303.153 152.465C303.247 152.794 303.456 153.086 303.753 153.265C304.053 153.447 304.412 153.495 304.75 153.39L304.769 153.384L304.787 153.376L309.75 151.39C309.751 151.39 309.751 151.39 309.751 151.39C310.096 151.254 310.364 150.981 310.515 150.647C310.667 150.314 310.696 149.933 310.602 149.579L310.602 149.579L310.599 149.569Z" fill="#E2FBDA" stroke="black"/>
<mask id="path-5-inside-1_66_3936" fill="white">
<path d="M311.706 89.6311C311.706 89.7831 302.462 93.6818 290.962 98.3191C279.462 102.956 270.082 106.681 270.034 106.573C269.985 106.464 279.278 102.533 290.788 97.8847C302.297 93.2366 311.658 89.4899 311.706 89.6311Z"/>
</mask>
<path d="M311.706 89.6311C311.706 89.7831 302.462 93.6818 290.962 98.3191C279.462 102.956 270.082 106.681 270.034 106.573C269.985 106.464 279.278 102.533 290.788 97.8847C302.297 93.2366 311.658 89.4899 311.706 89.6311Z" fill="#263238"/>
<path d="M311.706 89.6311H312.706V89.4644L312.652 89.3068L311.706 89.6311ZM310.706 89.6311C310.706 89.3351 310.836 89.1334 310.879 89.0705C310.935 88.9885 310.991 88.9342 311.017 88.9103C311.07 88.8606 311.115 88.831 311.122 88.8259C311.145 88.8106 311.152 88.8081 311.125 88.8226C311.078 88.8478 310.992 88.8907 310.859 88.9539C310.597 89.0779 310.201 89.2563 309.68 89.4849C308.641 89.9411 307.132 90.5852 305.26 91.371C301.516 92.9422 296.335 95.0744 290.588 97.3916L291.336 99.2465C297.089 96.9265 302.28 94.7907 306.034 93.2152C307.91 92.4277 309.43 91.7788 310.484 91.3162C311.01 91.0855 311.426 90.8981 311.714 90.7618C311.856 90.6947 311.98 90.6337 312.074 90.5829C312.118 90.5594 312.178 90.5257 312.237 90.4865C312.262 90.4694 312.32 90.4297 312.382 90.3715C312.412 90.3434 312.471 90.2854 312.53 90.2002C312.575 90.134 312.706 89.9294 312.706 89.6311H310.706ZM290.588 97.3916C284.839 99.7099 279.622 101.799 275.836 103.296C273.943 104.044 272.411 104.642 271.351 105.047C270.82 105.249 270.413 105.4 270.141 105.497C270.003 105.546 269.912 105.576 269.861 105.592C269.831 105.601 269.838 105.598 269.865 105.592C269.871 105.591 269.93 105.578 270.012 105.575C270.047 105.574 270.152 105.572 270.281 105.605C270.378 105.629 270.758 105.741 270.947 106.166L269.12 106.98C269.311 107.406 269.693 107.519 269.792 107.544C269.925 107.578 270.034 107.576 270.074 107.574C270.166 107.572 270.241 107.557 270.267 107.551C270.332 107.538 270.396 107.519 270.44 107.506C270.538 107.476 270.664 107.433 270.809 107.382C271.105 107.277 271.529 107.119 272.063 106.915C273.135 106.507 274.676 105.905 276.571 105.156C280.363 103.657 285.585 101.565 291.336 99.2465L290.588 97.3916ZM270.947 106.166C271.143 106.604 270.957 106.971 270.9 107.07C270.83 107.192 270.75 107.269 270.723 107.293C270.661 107.352 270.608 107.386 270.603 107.389C270.579 107.405 270.571 107.408 270.598 107.393C270.645 107.369 270.73 107.327 270.863 107.265C271.123 107.143 271.518 106.967 272.038 106.739C273.076 106.286 274.588 105.641 276.464 104.853C280.215 103.278 285.411 101.134 291.162 98.8119L290.413 96.9574C284.655 99.2829 279.45 101.43 275.689 103.009C273.81 103.798 272.288 104.447 271.237 104.907C270.713 105.136 270.3 105.32 270.017 105.453C269.877 105.518 269.757 105.576 269.667 105.623C269.626 105.645 269.567 105.677 269.51 105.714C269.489 105.728 269.423 105.771 269.353 105.836C269.323 105.864 269.241 105.944 269.169 106.069C269.11 106.17 268.924 106.539 269.12 106.98L270.947 106.166ZM291.162 98.8119C296.917 96.4879 302.132 94.3903 305.913 92.8915C307.805 92.1419 309.334 91.5437 310.391 91.1424C310.921 90.9411 311.324 90.7925 311.593 90.6995C311.73 90.6519 311.816 90.6246 311.861 90.6121C311.889 90.6041 311.871 90.6104 311.831 90.6168C311.82 90.6185 311.742 90.6318 311.637 90.6255C311.588 90.6225 311.464 90.6122 311.319 90.5515C311.168 90.4885 310.886 90.3213 310.76 89.9554L312.652 89.3068C312.526 88.9386 312.242 88.7697 312.088 88.7054C311.94 88.6435 311.812 88.6324 311.758 88.6291C311.642 88.6221 311.549 88.6366 311.518 88.6415C311.439 88.654 311.365 88.6739 311.319 88.6868C311.216 88.7159 311.084 88.7591 310.938 88.8096C310.641 88.9126 310.215 89.0698 309.681 89.2726C308.61 89.6793 307.07 90.2819 305.177 91.0322C301.388 92.5336 296.168 94.6333 290.413 96.9574L291.162 98.8119Z" fill="black" mask="url(#path-5-inside-1_66_3936)"/>
<path d="M336.39 145.832L336.369 145.821C336.387 145.787 336.404 145.753 336.421 145.719L336.421 145.719L336.426 145.709C336.568 145.409 336.692 145.1 336.796 144.784C336.684 145.143 336.548 145.493 336.39 145.832ZM336.39 145.832L336.369 145.821C335.914 146.698 335.317 147.477 334.604 148.115L334.596 148.122L334.588 148.129C334.562 148.15 334.537 148.171 334.511 148.192L334.561 148.253M336.39 145.832C335.925 146.763 335.304 147.586 334.561 148.253M334.561 148.253L334.508 148.195C333.04 149.389 331.409 150.315 329.676 150.936L329.606 150.964L329.603 150.966L324.701 152.952L324.701 152.952L324.622 152.984L324.658 153.075M334.561 148.253C333.065 149.478 331.405 150.428 329.643 151.066L324.658 153.075M324.658 153.075L324.622 152.984L315.283 156.774L315.282 156.775L315.198 156.809L315.22 156.865M324.658 153.075L315.22 156.865M315.22 156.865L315.198 156.809L307.896 159.792L315.22 156.865ZM315.094 156.311L315.117 156.368L315.035 156.401L315.034 156.401L307.709 159.328L315.094 156.311ZM315.094 156.311L315.117 156.368L324.471 152.611L324.472 152.611L324.55 152.58L324.513 152.489M315.094 156.311L324.513 152.489M324.513 152.489L324.55 152.58L329.456 150.602L329.465 150.599L329.473 150.596C329.494 150.588 329.515 150.581 329.536 150.573L329.498 150.469M324.513 152.489L329.498 150.469M329.498 150.469L329.54 150.572C331.219 149.955 332.803 149.045 334.235 147.874C334.262 147.849 334.29 147.824 334.317 147.799C334.317 147.798 334.318 147.798 334.319 147.797C334.971 147.19 335.521 146.451 335.94 145.614C335.957 145.577 335.974 145.54 335.991 145.503C335.991 145.503 335.991 145.503 335.991 145.503C336.117 145.22 336.227 144.928 336.32 144.63C336.222 144.926 336.107 145.215 335.974 145.495C335.54 146.36 334.962 147.123 334.27 147.743C332.822 148.936 331.21 149.856 329.498 150.469Z" fill="#263238" stroke="black"/>
<mask id="path-8-inside-2_66_3936" fill="white">
<path d="M295.425 76.6533C295.425 76.6533 294.911 76.371 293.963 75.9366C292.611 75.3537 291.181 75.0306 289.733 74.9809C287.587 74.8983 285.451 75.3508 283.479 76.3058C281.082 77.495 279.032 79.4184 277.565 81.8553C276.088 84.2852 275.295 87.1568 275.29 90.098C275.31 92.5086 275.636 94.9038 276.258 97.2113C276.761 99.1878 277.284 100.763 277.633 101.859C277.838 102.417 278.007 102.99 278.136 103.575C277.861 103.054 277.631 102.505 277.449 101.935C277.052 100.849 276.481 99.3073 275.919 97.3199C275.23 94.9881 274.855 92.554 274.806 90.098C274.78 87.0457 275.591 84.0583 277.129 81.5403C278.648 79.0144 280.781 77.0315 283.276 75.828C285.309 74.8678 287.511 74.4442 289.713 74.5899C291.193 74.6745 292.646 75.0609 294.002 75.7302C294.364 75.9179 294.714 76.1357 295.047 76.3818C295.185 76.4497 295.312 76.5413 295.425 76.6533Z"/>
</mask>
<path d="M295.425 76.6533C295.425 76.6533 294.911 76.371 293.963 75.9366C292.611 75.3537 291.181 75.0306 289.733 74.9809C287.587 74.8983 285.451 75.3508 283.479 76.3058C281.082 77.495 279.032 79.4184 277.565 81.8553C276.088 84.2852 275.295 87.1568 275.29 90.098C275.31 92.5086 275.636 94.9038 276.258 97.2113C276.761 99.1878 277.284 100.763 277.633 101.859C277.838 102.417 278.007 102.99 278.136 103.575C277.861 103.054 277.631 102.505 277.449 101.935C277.052 100.849 276.481 99.3073 275.919 97.3199C275.23 94.9881 274.855 92.554 274.806 90.098C274.78 87.0457 275.591 84.0583 277.129 81.5403C278.648 79.0144 280.781 77.0315 283.276 75.828C285.309 74.8678 287.511 74.4442 289.713 74.5899C291.193 74.6745 292.646 75.0609 294.002 75.7302C294.364 75.9179 294.714 76.1357 295.047 76.3818C295.185 76.4497 295.312 76.5413 295.425 76.6533Z" fill="#263238"/>
<path d="M295.425 76.6533L294.942 77.5294L296.13 75.9449L295.425 76.6533ZM293.963 75.9366L294.379 75.0274L294.369 75.0227L294.359 75.0183L293.963 75.9366ZM289.733 74.9809L289.694 75.9802L289.698 75.9803L289.733 74.9809ZM283.479 76.3058L283.043 75.4058L283.035 75.41L283.479 76.3058ZM277.565 81.8553L278.419 82.3747L278.422 82.3711L277.565 81.8553ZM275.29 90.098L274.29 90.0962L274.29 90.1064L275.29 90.098ZM276.258 97.2113L277.227 96.9645L277.224 96.9511L276.258 97.2113ZM277.633 101.859L276.68 102.162L276.687 102.184L276.695 102.206L277.633 101.859ZM278.136 103.575L277.252 104.042L279.112 103.359L278.136 103.575ZM277.449 101.935L278.401 101.631L278.395 101.611L278.388 101.592L277.449 101.935ZM275.919 97.3199L276.882 97.048L276.878 97.0365L275.919 97.3199ZM274.806 90.098L273.806 90.1065L273.806 90.1179L274.806 90.098ZM277.129 81.5403L277.983 82.0616L277.986 82.0555L277.129 81.5403ZM283.276 75.828L282.849 74.9237L282.842 74.9273L283.276 75.828ZM289.713 74.5899L289.647 75.5878L289.656 75.5883L289.713 74.5899ZM294.002 75.7302L294.461 74.8421L294.453 74.8378L294.444 74.8336L294.002 75.7302ZM295.047 76.3818L294.453 77.1864L294.525 77.2394L294.605 77.2788L295.047 76.3818ZM295.425 76.6533C295.907 75.7773 295.907 75.7772 295.907 75.7772C295.907 75.7772 295.906 75.7771 295.906 75.7771C295.906 75.7771 295.906 75.777 295.906 75.777C295.906 75.7768 295.906 75.7767 295.905 75.7766C295.905 75.7763 295.904 75.7759 295.903 75.7754C295.902 75.7746 295.9 75.7734 295.897 75.772C295.892 75.7692 295.885 75.7652 295.875 75.7603C295.857 75.7504 295.831 75.7363 295.797 75.7183C295.729 75.6824 295.63 75.6308 295.501 75.5656C295.243 75.4352 294.866 75.2503 294.379 75.0274L293.546 76.8458C294.008 77.0573 294.362 77.2308 294.598 77.3502C294.716 77.4098 294.804 77.456 294.862 77.4865C294.891 77.5018 294.912 77.5132 294.926 77.5204C294.932 77.524 294.937 77.5266 294.94 77.5281C294.941 77.5289 294.942 77.5294 294.943 77.5296C294.943 77.5297 294.943 77.5297 294.943 77.5297C294.943 77.5297 294.943 77.5297 294.943 77.5296C294.943 77.5296 294.943 77.5296 294.943 77.5295C294.943 77.5295 294.942 77.5295 294.942 77.5295C294.942 77.5295 294.942 77.5294 295.425 76.6533ZM294.359 75.0183C292.894 74.3869 291.341 74.0355 289.767 73.9815L289.698 75.9803C291.02 76.0257 292.327 76.3205 293.567 76.8549L294.359 75.0183ZM289.771 73.9816C287.458 73.8926 285.159 74.3809 283.043 75.4058L283.915 77.2058C285.742 76.3208 287.715 75.904 289.694 75.9802L289.771 73.9816ZM283.035 75.41C280.456 76.6893 278.267 78.7499 276.708 81.3395L278.422 82.3711C279.797 80.0868 281.708 78.3006 283.924 77.2017L283.035 75.41ZM276.71 81.3359C275.135 83.9274 274.296 86.979 274.29 90.0962L276.29 90.0998C276.295 87.3347 277.041 84.6431 278.419 82.3747L276.71 81.3359ZM274.29 90.1064C274.311 92.6013 274.648 95.0811 275.293 97.4715L277.224 96.9511C276.624 94.7264 276.31 92.4159 276.29 90.0897L274.29 90.1064ZM275.289 97.4581C275.801 99.4692 276.334 101.076 276.68 102.162L278.586 101.557C278.234 100.449 277.722 98.9064 277.227 96.9645L275.289 97.4581ZM276.695 102.206C276.884 102.72 277.04 103.25 277.16 103.791L279.112 103.359C278.973 102.73 278.792 102.113 278.571 101.513L276.695 102.206ZM279.02 103.108C278.773 102.64 278.566 102.146 278.401 101.631L276.496 102.24C276.696 102.865 276.949 103.468 277.252 104.042L279.02 103.108ZM278.388 101.592C277.991 100.506 277.432 98.9953 276.882 97.0481L274.957 97.5918C275.53 99.6193 276.113 101.193 276.51 102.279L278.388 101.592ZM276.878 97.0365C276.215 94.7912 275.853 92.4458 275.806 90.0781L273.806 90.1179C273.857 92.6623 274.246 95.1851 274.96 97.6034L276.878 97.0365ZM275.806 90.0896C275.782 87.2173 276.546 84.4144 277.983 82.0616L276.276 81.0191C274.637 83.7021 273.779 86.8742 273.806 90.1065L275.806 90.0896ZM277.986 82.0555C279.411 79.6853 281.403 77.8421 283.711 76.7286L282.842 74.9273C280.16 76.221 277.884 78.3435 276.272 81.0251L277.986 82.0555ZM283.703 76.7322C285.585 75.8432 287.618 75.4535 289.647 75.5878L289.779 73.5921C287.404 73.4349 285.033 73.8924 282.849 74.9238L283.703 76.7322ZM289.656 75.5883C290.999 75.6651 292.321 76.0158 293.559 76.6269L294.444 74.8336C292.971 74.1061 291.387 73.684 289.77 73.5916L289.656 75.5883ZM293.542 76.6183C293.857 76.7813 294.161 76.9711 294.453 77.1864L295.641 75.5773C295.266 75.3003 294.871 75.0544 294.461 74.8421L293.542 76.6183ZM294.605 77.2788C294.642 77.2969 294.681 77.3238 294.719 77.3618L296.13 75.9449C295.943 75.7588 295.728 75.6025 295.489 75.4849L294.605 77.2788Z" fill="black" mask="url(#path-8-inside-2_66_3936)"/>
<mask id="path-10-inside-3_66_3936" fill="white">
<path d="M295.87 119.149C296.024 119.044 296.186 118.953 296.354 118.877C296.838 118.632 297.34 118.432 297.854 118.28C298.67 118.01 299.512 117.849 300.361 117.802C301.517 117.732 302.673 117.928 303.759 118.378C306.237 119.355 308.512 122.189 309.635 125.98C310.173 128.014 310.173 130.179 309.635 132.213C309.038 134.421 307.967 136.431 306.518 138.067L306.576 137.773C307.863 141.737 309.267 146.038 310.719 150.523L310.806 150.795L310.564 150.892L308.347 151.718L303.507 153.531L303.265 153.618L303.188 153.347C301.862 148.851 300.41 144.659 299.316 140.543L299.529 140.727C297.636 140.551 295.832 139.754 294.34 138.436C292.991 137.27 291.884 135.787 291.098 134.092C290.388 132.589 290.035 130.906 290.071 129.205C290.116 127.467 290.503 125.761 291.204 124.21C291.906 122.66 292.904 121.302 294.127 120.235C294.631 119.776 295.196 119.409 295.802 119.149C295.255 119.513 294.725 119.908 294.215 120.332C292.87 121.608 291.84 123.25 291.223 125.1C290.694 126.495 290.446 128.004 290.498 129.52C290.55 131.035 290.9 132.518 291.523 133.864C292.297 135.495 293.377 136.918 294.689 138.034C296.112 139.287 297.832 140.043 299.635 140.206H299.8L299.848 140.369C300.913 144.409 302.375 148.633 303.72 153.151L303.401 152.978L308.241 151.164L310.448 150.328L310.293 150.697C308.851 146.212 307.457 141.9 306.179 137.936V137.773L306.295 137.643C307.702 136.075 308.752 134.149 309.354 132.029C309.867 130.083 309.867 128.012 309.354 126.066C308.299 122.417 306.121 119.648 303.759 118.671C302.714 118.218 301.597 118.008 300.477 118.052C299.641 118.073 298.81 118.201 297.999 118.432C296.557 118.834 295.879 119.203 295.87 119.149Z"/>
</mask>
<path d="M295.87 119.149C296.024 119.044 296.186 118.953 296.354 118.877C296.838 118.632 297.34 118.432 297.854 118.28C298.67 118.01 299.512 117.849 300.361 117.802C301.517 117.732 302.673 117.928 303.759 118.378C306.237 119.355 308.512 122.189 309.635 125.98C310.173 128.014 310.173 130.179 309.635 132.213C309.038 134.421 307.967 136.431 306.518 138.067L306.576 137.773C307.863 141.737 309.267 146.038 310.719 150.523L310.806 150.795L310.564 150.892L308.347 151.718L303.507 153.531L303.265 153.618L303.188 153.347C301.862 148.851 300.41 144.659 299.316 140.543L299.529 140.727C297.636 140.551 295.832 139.754 294.34 138.436C292.991 137.27 291.884 135.787 291.098 134.092C290.388 132.589 290.035 130.906 290.071 129.205C290.116 127.467 290.503 125.761 291.204 124.21C291.906 122.66 292.904 121.302 294.127 120.235C294.631 119.776 295.196 119.409 295.802 119.149C295.255 119.513 294.725 119.908 294.215 120.332C292.87 121.608 291.84 123.25 291.223 125.1C290.694 126.495 290.446 128.004 290.498 129.52C290.55 131.035 290.9 132.518 291.523 133.864C292.297 135.495 293.377 136.918 294.689 138.034C296.112 139.287 297.832 140.043 299.635 140.206H299.8L299.848 140.369C300.913 144.409 302.375 148.633 303.72 153.151L303.401 152.978L308.241 151.164L310.448 150.328L310.293 150.697C308.851 146.212 307.457 141.9 306.179 137.936V137.773L306.295 137.643C307.702 136.075 308.752 134.149 309.354 132.029C309.867 130.083 309.867 128.012 309.354 126.066C308.299 122.417 306.121 119.648 303.759 118.671C302.714 118.218 301.597 118.008 300.477 118.052C299.641 118.073 298.81 118.201 297.999 118.432C296.557 118.834 295.879 119.203 295.87 119.149Z" fill="#263238"/>
<path d="M295.87 119.149L295.308 118.322L294.772 118.686L294.885 119.324L295.87 119.149ZM296.354 118.877L296.765 119.789L296.786 119.779L296.805 119.769L296.354 118.877ZM297.854 118.28L298.138 119.239L298.153 119.234L298.169 119.229L297.854 118.28ZM300.361 117.802L300.417 118.8L300.421 118.8L300.361 117.802ZM303.759 118.378L303.377 119.302L303.384 119.305L303.392 119.308L303.759 118.378ZM309.635 125.98L310.601 125.724L310.598 125.709L310.594 125.695L309.635 125.98ZM309.635 132.213L310.6 132.474L310.601 132.469L309.635 132.213ZM306.518 138.067L305.537 137.872L304.82 141.491L307.266 138.73L306.518 138.067ZM306.576 137.773L307.527 137.465L306.341 133.813L305.595 137.579L306.576 137.773ZM310.719 150.523L311.671 150.218L311.67 150.215L310.719 150.523ZM310.806 150.795L311.181 151.722L312.042 151.374L311.758 150.489L310.806 150.795ZM310.564 150.892L310.913 151.83L310.926 151.825L310.939 151.82L310.564 150.892ZM308.347 151.718L307.998 150.781L307.996 150.781L308.347 151.718ZM303.507 153.531L303.845 154.473L303.858 154.468L303.507 153.531ZM303.265 153.618L302.304 153.893L302.597 154.921L303.603 154.559L303.265 153.618ZM303.188 153.347L304.15 153.072L304.147 153.064L303.188 153.347ZM299.316 140.543L299.971 139.787L297.514 137.658L298.349 140.8L299.316 140.543ZM299.529 140.727L299.436 141.723L302.537 142.012L300.184 139.972L299.529 140.727ZM294.34 138.436L295.003 137.687L294.994 137.679L294.34 138.436ZM291.098 134.092L292.005 133.671L292.002 133.665L291.098 134.092ZM290.071 129.205L289.072 129.179L289.072 129.183L290.071 129.205ZM294.127 120.235L294.785 120.988L294.793 120.981L294.801 120.974L294.127 120.235ZM295.802 119.149L296.356 119.981L295.407 118.23L295.802 119.149ZM294.215 120.332L293.575 119.563L293.55 119.584L293.526 119.607L294.215 120.332ZM291.223 125.1L292.158 125.455L292.166 125.436L292.172 125.416L291.223 125.1ZM291.523 133.864L290.616 134.284L290.62 134.292L291.523 133.864ZM294.689 138.034L295.35 137.284L295.343 137.278L295.337 137.273L294.689 138.034ZM299.635 140.206L299.545 141.202L299.59 141.206H299.635V140.206ZM299.8 140.206L300.758 139.921L300.546 139.206H299.8V140.206ZM299.848 140.369L300.815 140.114L300.811 140.099L300.807 140.084L299.848 140.369ZM303.72 153.151L303.242 154.03L305.37 155.187L304.679 152.866L303.72 153.151ZM303.401 152.978L303.05 152.041L300.999 152.81L302.923 153.856L303.401 152.978ZM308.241 151.164L308.592 152.1L308.595 152.099L308.241 151.164ZM310.448 150.328L311.37 150.714L312.27 148.568L310.094 149.393L310.448 150.328ZM310.293 150.697L309.341 151.003L310.169 153.578L311.215 151.084L310.293 150.697ZM306.179 137.936H305.179V138.094L305.227 138.243L306.179 137.936ZM306.179 137.773L305.432 137.108L305.179 137.393V137.773H306.179ZM306.295 137.643L305.551 136.975L305.549 136.978L306.295 137.643ZM309.354 132.029L310.316 132.302L310.319 132.293L310.321 132.284L309.354 132.029ZM309.354 126.066L310.321 125.811L310.318 125.8L310.315 125.789L309.354 126.066ZM303.759 118.671L303.362 119.589L303.369 119.592L303.377 119.595L303.759 118.671ZM300.477 118.052L300.503 119.051L300.517 119.051L300.477 118.052ZM297.999 118.432L298.268 119.395L298.274 119.394L297.999 118.432ZM296.432 119.976C296.54 119.902 296.651 119.84 296.765 119.789L295.942 117.966C295.721 118.065 295.509 118.185 295.308 118.322L296.432 119.976ZM296.805 119.769C297.237 119.551 297.683 119.374 298.138 119.239L297.57 117.321C296.998 117.491 296.44 117.713 295.902 117.985L296.805 119.769ZM298.169 119.229C298.902 118.986 299.656 118.843 300.417 118.8L300.306 116.803C299.367 116.856 298.439 117.033 297.54 117.33L298.169 119.229ZM300.421 118.8C301.424 118.74 302.429 118.909 303.377 119.302L304.141 117.454C302.918 116.947 301.61 116.725 300.301 116.804L300.421 118.8ZM303.392 119.308C305.484 120.133 307.605 122.648 308.676 126.264L310.594 125.695C309.419 121.731 306.99 118.577 304.126 117.447L303.392 119.308ZM308.668 126.235C309.162 128.102 309.162 130.091 308.668 131.957L310.601 132.469C311.184 130.267 311.184 127.925 310.601 125.724L308.668 126.235ZM308.669 131.952C308.111 134.018 307.112 135.888 305.769 137.404L307.266 138.73C308.823 136.973 309.965 134.824 310.6 132.474L308.669 131.952ZM307.499 138.261L307.557 137.968L305.595 137.579L305.537 137.872L307.499 138.261ZM305.625 138.082C306.913 142.048 308.316 146.346 309.768 150.831L311.67 150.215C310.218 145.73 308.814 141.426 307.527 137.465L305.625 138.082ZM309.767 150.829L309.854 151.1L311.758 150.489L311.671 150.218L309.767 150.829ZM310.432 149.867L310.19 149.965L310.939 151.82L311.181 151.722L310.432 149.867ZM310.215 149.955L307.998 150.781L308.696 152.655L310.913 151.83L310.215 149.955ZM307.996 150.781L303.156 152.595L303.858 154.468L308.698 152.654L307.996 150.781ZM303.169 152.59L302.927 152.677L303.603 154.559L303.845 154.473L303.169 152.59ZM304.227 153.344L304.149 153.072L302.226 153.621L302.304 153.893L304.227 153.344ZM304.147 153.064C302.799 148.494 301.375 144.398 300.282 140.286L298.349 140.8C299.444 144.92 300.924 149.207 302.229 153.63L304.147 153.064ZM298.661 141.298L298.874 141.483L300.184 139.972L299.971 139.787L298.661 141.298ZM299.622 139.732C297.951 139.576 296.343 138.872 295.003 137.687L293.678 139.185C295.321 140.637 297.322 141.526 299.436 141.723L299.622 139.732ZM294.994 137.679C293.757 136.61 292.734 135.244 292.005 133.671L290.19 134.513C291.034 136.33 292.224 137.929 293.687 139.193L294.994 137.679ZM292.002 133.665C291.36 132.305 291.038 130.776 291.071 129.227L289.072 129.183C289.032 131.035 289.416 132.872 290.193 134.519L292.002 133.665ZM291.071 129.231C291.113 127.623 291.47 126.049 292.115 124.622L290.293 123.798C289.536 125.473 289.12 127.311 289.072 129.179L291.071 129.231ZM292.115 124.622C292.76 123.196 293.674 121.957 294.785 120.988L293.47 119.481C292.133 120.647 291.051 122.123 290.293 123.798L292.115 124.622ZM294.801 120.974C295.225 120.587 295.697 120.283 296.197 120.067L295.407 118.23C294.696 118.536 294.037 118.964 293.454 119.495L294.801 120.974ZM295.248 118.316C294.671 118.7 294.113 119.116 293.575 119.563L294.854 121.101C295.338 120.699 295.839 120.325 296.356 119.981L295.248 118.316ZM293.526 119.607C292.057 121.002 290.941 122.786 290.275 124.783L292.172 125.416C292.74 123.713 293.684 122.215 294.903 121.058L293.526 119.607ZM290.288 124.745C289.711 126.266 289.442 127.908 289.499 129.554L291.497 129.485C291.45 128.101 291.677 126.724 292.158 125.455L290.288 124.745ZM289.499 129.554C289.555 131.2 289.935 132.815 290.616 134.284L292.431 133.443C291.865 132.222 291.545 130.87 291.497 129.485L289.499 129.554ZM290.62 134.292C291.451 136.045 292.616 137.583 294.041 138.796L295.337 137.273C294.138 136.252 293.143 134.945 292.427 133.435L290.62 134.292ZM294.028 138.785C295.602 140.171 297.52 141.018 299.545 141.202L299.726 139.21C298.144 139.067 296.621 138.403 295.35 137.284L294.028 138.785ZM299.635 141.206H299.8V139.206H299.635V141.206ZM298.841 140.491L298.89 140.654L300.807 140.084L300.758 139.921L298.841 140.491ZM298.881 140.624C299.949 144.676 301.436 148.985 302.762 153.437L304.679 152.866C303.314 148.282 301.877 144.142 300.815 140.114L298.881 140.624ZM304.198 152.273L303.879 152.099L302.923 153.856L303.242 154.03L304.198 152.273ZM303.752 153.914L308.592 152.1L307.89 150.227L303.05 152.041L303.752 153.914ZM308.595 152.099L310.802 151.263L310.094 149.393L307.887 150.229L308.595 152.099ZM309.526 149.941L309.371 150.31L311.215 151.084L311.37 150.714L309.526 149.941ZM311.245 150.391C309.803 145.905 308.408 141.592 307.131 137.63L305.227 138.243C306.505 142.208 307.899 146.518 309.341 151.003L311.245 150.391ZM307.179 137.936V137.773H305.179V137.936H307.179ZM306.926 138.439L307.042 138.309L305.549 136.978L305.432 137.108L306.926 138.439ZM307.039 138.311C308.553 136.624 309.674 134.562 310.316 132.302L308.392 131.755C307.829 133.736 306.852 135.526 305.551 136.975L307.039 138.311ZM310.321 132.284C310.878 130.171 310.878 127.924 310.321 125.811L308.387 126.322C308.856 128.1 308.856 129.995 308.387 131.773L310.321 132.284ZM310.315 125.789C309.209 121.966 306.881 118.881 304.141 117.747L303.377 119.595C305.361 120.416 307.389 122.869 308.393 126.344L310.315 125.789ZM304.156 117.753C302.975 117.242 301.71 117.003 300.438 117.052L300.517 119.051C301.484 119.013 302.452 119.195 303.362 119.589L304.156 117.753ZM300.452 117.052C299.531 117.076 298.616 117.216 297.725 117.47L298.274 119.394C299.004 119.185 299.752 119.071 300.503 119.051L300.452 117.052ZM297.731 117.469C296.971 117.68 296.41 117.884 296.037 118.029C295.816 118.114 295.751 118.142 295.648 118.181C295.602 118.199 295.618 118.191 295.658 118.181C295.663 118.18 295.768 118.15 295.91 118.154C295.979 118.157 296.157 118.168 296.353 118.275C296.596 118.409 296.797 118.654 296.854 118.973L294.885 119.324C294.943 119.647 295.146 119.895 295.392 120.03C295.591 120.139 295.774 120.151 295.849 120.153C296.002 120.158 296.125 120.126 296.152 120.119C296.236 120.097 296.318 120.066 296.359 120.051C296.431 120.023 296.628 119.944 296.758 119.894C297.087 119.767 297.585 119.585 298.268 119.395L297.731 117.469Z" fill="black" mask="url(#path-10-inside-3_66_3936)"/>
<path d="M231.874 415.28L110.341 414.717C103.323 414.678 96.6065 411.839 91.6676 406.823C86.7288 401.807 83.9711 395.024 84.0002 387.964L85.2899 81.5082C85.3042 78.0106 86.0037 74.5501 87.3484 71.3246C88.693 68.0991 90.6565 65.1718 93.1265 62.7099C95.5966 60.2481 98.5247 58.3001 101.744 56.9773C104.963 55.6544 108.409 54.9826 111.886 55.0003L233.407 55.5633C240.425 55.5989 247.143 58.4351 252.084 63.4488C257.025 68.4626 259.786 75.244 259.76 82.3037L258.47 388.747C258.456 392.246 257.756 395.708 256.412 398.935C255.068 402.162 253.105 405.091 250.635 407.554C248.165 410.018 245.237 411.968 242.018 413.294C238.799 414.619 235.352 415.294 231.874 415.28Z" fill="black"/>
<path d="M233.224 66.1004H209.67C208.901 66.1147 208.143 66.2812 207.438 66.5904C206.734 66.8995 206.097 67.3452 205.563 67.9021C205.03 68.459 204.611 69.1161 204.33 69.8359C204.05 70.5556 203.913 71.324 203.927 72.0971V76.3927C203.942 77.1652 203.804 77.9329 203.524 78.652C203.243 79.3711 202.823 80.0274 202.29 80.5833C201.757 81.1392 201.119 81.5838 200.415 81.8916C199.71 82.1994 198.952 82.3644 198.184 82.3772L152.267 82.1691C150.714 82.1274 149.241 81.4674 148.171 80.3338C147.101 79.2003 146.522 77.686 146.561 76.1234V71.8278C146.601 70.2674 146.023 68.7549 144.956 67.6217C143.889 66.4885 142.418 65.827 140.867 65.7822H132.582L111.959 65.6843C107.054 65.6549 102.337 67.5818 98.8416 71.0431C95.3458 74.5043 93.356 79.2179 93.3078 84.1517L92.0911 383.277C92.0799 385.725 92.5481 388.151 93.469 390.416C94.3899 392.682 95.7454 394.743 97.4581 396.482C99.1709 398.22 101.207 399.603 103.451 400.55C105.695 401.497 108.102 401.99 110.536 402.001L231.813 402.564C234.248 402.576 236.661 402.104 238.915 401.177C241.169 400.251 243.22 398.886 244.949 397.162C246.679 395.438 248.054 393.388 248.996 391.13C249.938 388.871 250.429 386.448 250.44 383.999L251.657 84.8737C251.686 79.926 249.761 75.1692 246.304 71.6488C242.848 68.1284 238.143 66.1327 233.224 66.1004Z" fill="white"/>
<path d="M216.915 362.156L216.911 362.156L126.732 361.764H126.73C126.457 361.764 126.171 361.616 125.937 361.297C125.703 360.979 125.545 360.518 125.551 359.993L125.551 359.99L125.648 336.26H125.648V336.258C125.648 335.746 125.809 335.283 126.05 334.959C126.291 334.633 126.581 334.482 126.85 334.482C126.851 334.482 126.851 334.482 126.851 334.482L216.983 334.897C217.359 334.973 217.695 335.186 217.924 335.499C218.161 335.821 218.265 336.224 218.214 336.623L218.21 336.653L218.21 336.684L218.124 360.39V360.392C218.124 360.922 217.96 361.383 217.72 361.698C217.48 362.014 217.189 362.159 216.915 362.156Z" fill="#E2FBDA" stroke="black"/>
<path d="M155.159 344.597C155.124 344.304 154.984 344.077 154.738 343.915C154.491 343.754 154.189 343.673 153.831 343.673C153.569 343.673 153.34 343.715 153.144 343.8C152.949 343.884 152.797 344.001 152.687 344.149C152.58 344.297 152.526 344.466 152.526 344.654C152.526 344.812 152.563 344.948 152.638 345.062C152.715 345.173 152.813 345.267 152.933 345.342C153.052 345.415 153.177 345.476 153.308 345.524C153.439 345.57 153.559 345.607 153.669 345.636L154.27 345.798C154.424 345.838 154.595 345.894 154.784 345.965C154.974 346.037 155.156 346.134 155.329 346.257C155.505 346.378 155.649 346.534 155.763 346.725C155.876 346.915 155.933 347.149 155.933 347.427C155.933 347.746 155.849 348.035 155.682 348.293C155.516 348.551 155.274 348.756 154.954 348.908C154.636 349.06 154.251 349.136 153.796 349.136C153.373 349.136 153.006 349.068 152.696 348.931C152.388 348.794 152.146 348.604 151.968 348.359C151.793 348.115 151.694 347.831 151.671 347.507H152.41C152.429 347.731 152.505 347.915 152.635 348.062C152.768 348.206 152.936 348.314 153.138 348.385C153.342 348.454 153.561 348.489 153.796 348.489C154.07 348.489 154.315 348.445 154.533 348.356C154.75 348.266 154.922 348.141 155.049 347.981C155.176 347.819 155.24 347.631 155.24 347.415C155.24 347.219 155.185 347.059 155.075 346.936C154.966 346.812 154.821 346.712 154.642 346.635C154.463 346.558 154.27 346.491 154.062 346.433L153.334 346.225C152.872 346.092 152.506 345.903 152.237 345.656C151.967 345.41 151.833 345.088 151.833 344.689C151.833 344.358 151.922 344.069 152.101 343.823C152.282 343.575 152.525 343.382 152.829 343.245C153.135 343.107 153.477 343.037 153.854 343.037C154.235 343.037 154.574 343.106 154.87 343.242C155.167 343.377 155.402 343.562 155.575 343.797C155.75 344.032 155.843 344.298 155.852 344.597H155.159ZM157.826 343.118V349.032H157.11V343.118H157.826ZM163.952 343.118V349.032H163.259L160.036 344.389H159.978V349.032H159.262V343.118H159.955L163.189 347.773H163.247V343.118H163.952ZM169.427 344.966C169.364 344.772 169.28 344.598 169.176 344.444C169.074 344.288 168.952 344.155 168.809 344.045C168.669 343.935 168.509 343.852 168.33 343.794C168.151 343.736 167.954 343.707 167.741 343.707C167.39 343.707 167.072 343.798 166.785 343.979C166.498 344.16 166.27 344.426 166.101 344.779C165.931 345.131 165.847 345.563 165.847 346.075C165.847 346.587 165.932 347.019 166.104 347.372C166.275 347.724 166.507 347.991 166.799 348.171C167.092 348.352 167.421 348.443 167.787 348.443C168.126 348.443 168.424 348.371 168.682 348.226C168.942 348.08 169.144 347.874 169.289 347.608C169.435 347.341 169.508 347.026 169.508 346.664L169.727 346.71H167.949V346.075H170.201V346.71C170.201 347.197 170.097 347.621 169.889 347.981C169.683 348.341 169.398 348.62 169.034 348.818C168.673 349.015 168.257 349.113 167.787 349.113C167.263 349.113 166.803 348.99 166.407 348.743C166.012 348.497 165.704 348.146 165.483 347.692C165.263 347.238 165.154 346.699 165.154 346.075C165.154 345.607 165.216 345.187 165.341 344.813C165.468 344.438 165.647 344.118 165.878 343.855C166.109 343.591 166.383 343.389 166.698 343.248C167.014 343.108 167.362 343.037 167.741 343.037C168.053 343.037 168.343 343.085 168.613 343.179C168.884 343.271 169.126 343.403 169.338 343.575C169.551 343.744 169.729 343.947 169.872 344.184C170.014 344.419 170.112 344.68 170.166 344.966H169.427ZM177.595 343.118H178.311V347.034C178.311 347.438 178.216 347.799 178.025 348.117C177.837 348.432 177.57 348.682 177.226 348.865C176.881 349.045 176.477 349.136 176.013 349.136C175.549 349.136 175.145 349.045 174.8 348.865C174.456 348.682 174.188 348.432 173.997 348.117C173.809 347.799 173.714 347.438 173.714 347.034V343.118H174.431V346.976C174.431 347.265 174.494 347.522 174.621 347.747C174.748 347.97 174.929 348.146 175.164 348.275C175.401 348.403 175.684 348.466 176.013 348.466C176.342 348.466 176.625 348.403 176.862 348.275C177.099 348.146 177.28 347.97 177.405 347.747C177.532 347.522 177.595 347.265 177.595 346.976V343.118ZM179.741 349.032V343.118H181.74C182.203 343.118 182.583 343.202 182.877 343.37C183.174 343.535 183.393 343.759 183.536 344.042C183.678 344.325 183.749 344.641 183.749 344.989C183.749 345.338 183.678 345.655 183.536 345.939C183.395 346.224 183.178 346.451 182.883 346.621C182.589 346.788 182.211 346.872 181.751 346.872H180.319V346.237H181.728C182.046 346.237 182.301 346.182 182.493 346.072C182.686 345.963 182.825 345.814 182.912 345.628C183 345.439 183.045 345.226 183.045 344.989C183.045 344.753 183 344.541 182.912 344.354C182.825 344.167 182.685 344.021 182.49 343.915C182.296 343.807 182.038 343.754 181.716 343.754H180.458V349.032H179.741Z" fill="#E8E8E3"/>
<path d="M155.159 344.597L154.166 344.714L154.271 345.597H155.159V344.597ZM154.738 343.915L154.189 344.751H154.189L154.738 343.915ZM153.144 343.8L152.748 342.882L152.744 342.883L153.144 343.8ZM152.687 344.149L151.884 343.554L151.879 343.561L152.687 344.149ZM152.638 345.062L151.804 345.613L151.81 345.621L151.815 345.629L152.638 345.062ZM152.933 345.342L152.4 346.188L152.41 346.194L152.933 345.342ZM153.308 345.524L152.963 346.462L152.975 346.467L153.308 345.524ZM153.669 345.636L153.929 344.671L153.924 344.669L153.669 345.636ZM154.27 345.798L154.01 346.764L154.016 346.765L154.27 345.798ZM154.784 345.965L154.431 346.901L154.434 346.902L154.784 345.965ZM155.329 346.257L154.75 347.072L154.76 347.079L155.329 346.257ZM155.763 346.725L156.622 346.213L156.622 346.213L155.763 346.725ZM155.682 348.293L154.843 347.748L154.84 347.753L155.682 348.293ZM154.954 348.908L154.524 348.005L154.522 348.006L154.954 348.908ZM152.696 348.931L152.29 349.845L152.293 349.846L152.696 348.931ZM151.968 348.359L151.156 348.942L151.159 348.946L151.968 348.359ZM151.671 347.507V346.507H150.597L150.674 347.579L151.671 347.507ZM152.41 347.507L153.407 347.421L153.328 346.507H152.41V347.507ZM152.635 348.062L151.89 348.729L151.899 348.739L152.635 348.062ZM153.138 348.385L152.805 349.328L152.816 349.332L153.138 348.385ZM154.533 348.356L154.91 349.283L154.917 349.28L154.533 348.356ZM155.049 347.981L155.832 348.603L155.836 348.599L155.049 347.981ZM155.075 346.936L155.822 346.271L155.822 346.271L155.075 346.936ZM154.642 346.635L154.247 347.554L154.247 347.554L154.642 346.635ZM154.062 346.433L153.787 347.395L153.794 347.397L154.062 346.433ZM153.334 346.225L153.058 347.186L153.059 347.187L153.334 346.225ZM152.237 345.656L151.562 346.394L151.562 346.394L152.237 345.656ZM152.101 343.823L151.293 343.234L151.292 343.235L152.101 343.823ZM152.829 343.245L153.239 344.158L153.241 344.156L152.829 343.245ZM154.87 343.242L154.452 344.151L154.457 344.153L154.87 343.242ZM155.575 343.797L154.77 344.391L154.773 344.395L155.575 343.797ZM155.852 344.597V345.597H156.885L156.852 344.564L155.852 344.597ZM156.152 344.479C156.083 343.893 155.78 343.403 155.286 343.079L154.189 344.751C154.197 344.757 154.197 344.758 154.194 344.754C154.19 344.75 154.183 344.743 154.177 344.733C154.171 344.723 154.168 344.714 154.166 344.709C154.164 344.704 154.165 344.705 154.166 344.714L156.152 344.479ZM155.286 343.079C154.845 342.79 154.342 342.673 153.831 342.673V344.673C154.036 344.673 154.138 344.718 154.189 344.751L155.286 343.079ZM153.831 342.673C153.463 342.673 153.094 342.732 152.748 342.882L153.54 344.718C153.586 344.698 153.676 344.673 153.831 344.673V342.673ZM152.744 342.883C152.414 343.027 152.112 343.245 151.884 343.554L153.491 344.744C153.488 344.748 153.487 344.748 153.492 344.745C153.497 344.741 153.512 344.73 153.543 344.717L152.744 342.883ZM151.879 343.561C151.643 343.885 151.526 344.261 151.526 344.654H153.526C153.526 344.657 153.525 344.671 153.519 344.691C153.512 344.712 153.503 344.728 153.496 344.737L151.879 343.561ZM151.526 344.654C151.526 344.976 151.604 345.311 151.804 345.613L153.473 344.51C153.495 344.544 153.509 344.578 153.518 344.608C153.526 344.637 153.526 344.654 153.526 344.654H151.526ZM151.815 345.629C151.972 345.857 152.171 346.044 152.4 346.188L153.465 344.495C153.459 344.492 153.458 344.49 153.459 344.491C153.46 344.492 153.461 344.493 153.462 344.494L151.815 345.629ZM152.41 346.194C152.586 346.302 152.77 346.391 152.963 346.462L153.653 344.585C153.584 344.56 153.519 344.528 153.455 344.489L152.41 346.194ZM152.975 346.467C153.127 346.52 153.273 346.566 153.415 346.603L153.924 344.669C153.845 344.649 153.752 344.62 153.641 344.581L152.975 346.467ZM153.409 346.602L154.01 346.764L154.53 344.832L153.929 344.671L153.409 346.602ZM154.016 346.765C154.129 346.795 154.266 346.839 154.431 346.901L155.137 345.03C154.924 344.949 154.719 344.882 154.524 344.831L154.016 346.765ZM154.434 346.902C154.539 346.942 154.644 346.997 154.75 347.072L155.909 345.442C155.668 345.271 155.409 345.132 155.134 345.029L154.434 346.902ZM154.76 347.079C154.813 347.116 154.86 347.164 154.904 347.237L156.622 346.213C156.438 345.905 156.196 345.641 155.899 345.435L154.76 347.079ZM154.904 347.237C154.904 347.238 154.933 347.285 154.933 347.427H156.933C156.933 347.014 156.848 346.593 156.622 346.213L154.904 347.237ZM154.933 347.427C154.933 347.561 154.901 347.659 154.843 347.748L156.52 348.837C156.797 348.411 156.933 347.931 156.933 347.427H154.933ZM154.84 347.753C154.79 347.831 154.702 347.92 154.524 348.005L155.384 349.811C155.845 349.591 156.242 349.271 156.523 348.833L154.84 347.753ZM154.522 348.006C154.373 348.078 154.143 348.136 153.796 348.136V350.136C154.358 350.136 154.9 350.042 155.386 349.81L154.522 348.006ZM153.796 348.136C153.478 348.136 153.255 348.084 153.1 348.016L152.293 349.846C152.757 350.051 153.267 350.136 153.796 350.136V348.136ZM153.102 348.017C152.936 347.943 152.84 347.858 152.778 347.773L151.159 348.946C151.451 349.349 151.84 349.645 152.29 349.845L153.102 348.017ZM152.781 347.777C152.722 347.694 152.679 347.59 152.668 347.436L150.674 347.579C150.709 348.071 150.864 348.535 151.156 348.942L152.781 347.777ZM151.671 348.507H152.41V346.507H151.671V348.507ZM151.414 347.593C151.449 348 151.595 348.399 151.89 348.729L153.381 347.395C153.386 347.401 153.392 347.409 153.397 347.417C153.402 347.425 153.405 347.432 153.407 347.437C153.412 347.448 153.409 347.446 153.407 347.421L151.414 347.593ZM151.899 348.739C152.153 349.014 152.464 349.208 152.806 349.328L153.47 347.442C153.408 347.42 153.383 347.398 153.371 347.385L151.899 348.739ZM152.816 349.332C153.133 349.44 153.462 349.489 153.796 349.489V347.489C153.661 347.489 153.551 347.469 153.459 347.438L152.816 349.332ZM153.796 349.489C154.178 349.489 154.554 349.427 154.91 349.282L154.155 347.43C154.076 347.463 153.961 347.489 153.796 347.489V349.489ZM154.917 349.28C155.266 349.134 155.585 348.915 155.832 348.603L154.267 347.359C154.26 347.367 154.234 347.397 154.148 347.433L154.917 349.28ZM155.836 348.599C156.108 348.252 156.24 347.843 156.24 347.415H154.24C154.24 347.423 154.239 347.416 154.245 347.399C154.247 347.391 154.251 347.384 154.254 347.377C154.258 347.37 154.261 347.365 154.263 347.363L155.836 348.599ZM156.24 347.415C156.24 347.023 156.125 346.611 155.822 346.271L154.329 347.601C154.293 347.561 154.268 347.515 154.253 347.473C154.239 347.433 154.24 347.41 154.24 347.415H156.24ZM155.822 346.271C155.599 346.02 155.327 345.841 155.037 345.717L154.247 347.554C154.316 347.584 154.332 347.605 154.329 347.601L155.822 346.271ZM155.037 345.717C154.813 345.62 154.576 345.538 154.33 345.47L153.794 347.397C153.963 347.444 154.114 347.497 154.247 347.554L155.037 345.717ZM154.337 345.472L153.609 345.264L153.059 347.187L153.787 347.395L154.337 345.472ZM153.611 345.264C153.252 345.161 153.037 345.033 152.912 344.918L151.562 346.394C151.976 346.773 152.493 347.024 153.058 347.186L153.611 345.264ZM152.912 344.918C152.87 344.88 152.833 344.835 152.833 344.689H150.833C150.833 345.34 151.065 345.94 151.562 346.394L152.912 344.918ZM152.833 344.689C152.833 344.55 152.866 344.471 152.91 344.411L151.292 343.235C150.978 343.667 150.833 344.166 150.833 344.689H152.833ZM152.909 344.412C152.979 344.316 153.079 344.229 153.239 344.158L152.419 342.333C151.97 342.535 151.585 342.833 151.293 343.234L152.909 344.412ZM153.241 344.156C153.403 344.083 153.601 344.037 153.854 344.037V342.037C153.352 342.037 152.867 342.13 152.416 342.334L153.241 344.156ZM153.854 344.037C154.115 344.037 154.307 344.084 154.452 344.151L155.289 342.334C154.841 342.128 154.356 342.037 153.854 342.037V344.037ZM154.457 344.153C154.616 344.225 154.709 344.308 154.77 344.391L156.38 343.203C156.094 342.816 155.717 342.529 155.284 342.332L154.457 344.153ZM154.773 344.395C154.824 344.462 154.849 344.531 154.853 344.629L156.852 344.564C156.836 344.066 156.676 343.601 156.377 343.199L154.773 344.395ZM155.852 343.597H155.159V345.597H155.852V343.597ZM157.826 343.118H158.826V342.118H157.826V343.118ZM157.826 349.032V350.032H158.826V349.032H157.826ZM157.11 349.032H156.11V350.032H157.11V349.032ZM157.11 343.118V342.118H156.11V343.118H157.11ZM156.826 343.118V349.032H158.826V343.118H156.826ZM157.826 348.032H157.11V350.032H157.826V348.032ZM158.11 349.032V343.118H156.11V349.032H158.11ZM157.11 344.118H157.826V342.118H157.11V344.118ZM163.952 343.118H164.952V342.118H163.952V343.118ZM163.952 349.032V350.032H164.952V349.032H163.952ZM163.259 349.032L162.437 349.602L162.735 350.032H163.259V349.032ZM160.036 344.389L160.858 343.819L160.559 343.389H160.036V344.389ZM159.978 344.389V343.389H158.978V344.389H159.978ZM159.978 349.032V350.032H160.978V349.032H159.978ZM159.262 349.032H158.262V350.032H159.262V349.032ZM159.262 343.118V342.118H158.262V343.118H159.262ZM159.955 343.118L160.777 342.548L160.478 342.118H159.955V343.118ZM163.189 347.773L162.368 348.344L162.666 348.773H163.189V347.773ZM163.247 347.773V348.773H164.247V347.773H163.247ZM163.247 343.118V342.118H162.247V343.118H163.247ZM162.952 343.118V349.032H164.952V343.118H162.952ZM163.952 348.032H163.259V350.032H163.952V348.032ZM164.08 348.462L160.858 343.819L159.215 344.959L162.437 349.602L164.08 348.462ZM160.036 343.389H159.978V345.389H160.036V343.389ZM158.978 344.389V349.032H160.978V344.389H158.978ZM159.978 348.032H159.262V350.032H159.978V348.032ZM160.262 349.032V343.118H158.262V349.032H160.262ZM159.262 344.118H159.955V342.118H159.262V344.118ZM159.134 343.689L162.368 348.344L164.011 347.202L160.777 342.548L159.134 343.689ZM163.189 348.773H163.247V346.773H163.189V348.773ZM164.247 347.773V343.118H162.247V347.773H164.247ZM163.247 344.118H163.952V342.118H163.247V344.118ZM169.427 344.966L168.477 345.277L168.702 345.966H169.427V344.966ZM169.176 344.444L168.339 344.991L168.343 344.997L168.347 345.003L169.176 344.444ZM168.809 344.045L168.194 344.833L168.199 344.837L168.809 344.045ZM168.33 343.794L168.637 342.842V342.842L168.33 343.794ZM166.101 344.779L167.002 345.212L167.002 345.212L166.101 344.779ZM166.104 347.372L165.204 347.809L166.104 347.372ZM166.799 348.171L166.274 349.022L166.799 348.171ZM168.682 348.226L169.171 349.099L169.173 349.098L168.682 348.226ZM169.289 347.608L168.411 347.129L168.41 347.131L169.289 347.608ZM169.508 346.664L169.714 345.686L168.508 345.432V346.664H169.508ZM169.727 346.71V347.71L169.933 345.732L169.727 346.71ZM167.949 346.71H166.949V347.71H167.949V346.71ZM167.949 346.075V345.075H166.949V346.075H167.949ZM170.201 346.075H171.201V345.075H170.201V346.075ZM169.889 347.981L169.023 347.481L169.021 347.484L169.889 347.981ZM169.034 348.818L169.511 349.697L169.513 349.696L169.034 348.818ZM166.407 348.743L165.877 349.591L165.879 349.593L166.407 348.743ZM165.483 347.692L164.582 348.127L164.584 348.13L165.483 347.692ZM165.341 344.813L164.394 344.493L164.393 344.496L165.341 344.813ZM165.878 343.855L166.631 344.514L166.631 344.514L165.878 343.855ZM168.613 343.179L168.282 344.123L168.291 344.126L168.613 343.179ZM169.338 343.575L168.709 344.352L168.716 344.358L169.338 343.575ZM169.872 344.184L169.015 344.699L169.017 344.702L169.872 344.184ZM170.166 344.966V345.966H171.372L171.149 344.782L170.166 344.966ZM170.378 344.656C170.288 344.382 170.166 344.122 170.005 343.884L168.347 345.003C168.394 345.073 168.439 345.162 168.477 345.277L170.378 344.656ZM170.013 343.896C169.852 343.65 169.654 343.433 169.419 343.253L168.199 344.837C168.25 344.876 168.296 344.926 168.339 344.991L170.013 343.896ZM169.425 343.257C169.187 343.071 168.921 342.934 168.637 342.842L168.023 344.746C168.097 344.769 168.151 344.8 168.194 344.833L169.425 343.257ZM168.637 342.842C168.346 342.749 168.045 342.707 167.741 342.707V344.707C167.864 344.707 167.955 344.724 168.023 344.746L168.637 342.842ZM167.741 342.707C167.208 342.707 166.704 342.848 166.251 343.133L167.319 344.825C167.44 344.748 167.573 344.707 167.741 344.707V342.707ZM166.251 343.133C165.783 343.429 165.438 343.85 165.199 344.345L167.002 345.212C167.103 345.003 167.214 344.891 167.319 344.825L166.251 343.133ZM165.199 344.345C164.948 344.868 164.847 345.458 164.847 346.075H166.847C166.847 345.669 166.914 345.394 167.002 345.212L165.199 344.345ZM164.847 346.075C164.847 346.694 164.95 347.285 165.204 347.809L167.003 346.934C166.915 346.753 166.847 346.48 166.847 346.075H164.847ZM165.204 347.809C165.447 348.307 165.798 348.728 166.274 349.022L167.325 347.321C167.215 347.253 167.103 347.141 167.003 346.934L165.204 347.809ZM166.274 349.022C166.734 349.307 167.248 349.443 167.787 349.443V347.443C167.595 347.443 167.45 347.398 167.325 347.321L166.274 349.022ZM167.787 349.443C168.272 349.443 168.743 349.338 169.171 349.099L168.194 347.354C168.106 347.403 167.98 347.443 167.787 347.443V349.443ZM169.173 349.098C169.599 348.858 169.934 348.514 170.167 348.086L168.41 347.131C168.354 347.234 168.285 347.302 168.192 347.355L169.173 349.098ZM170.166 348.088C170.406 347.648 170.508 347.162 170.508 346.664H168.508C168.508 346.89 168.463 347.033 168.411 347.129L170.166 348.088ZM169.302 347.643L169.521 347.689L169.933 345.732L169.714 345.686L169.302 347.643ZM169.727 345.71H167.949V347.71H169.727V345.71ZM168.949 346.71V346.075H166.949V346.71H168.949ZM167.949 347.075H170.201V345.075H167.949V347.075ZM169.201 346.075V346.71H171.201V346.075H169.201ZM169.201 346.71C169.201 347.052 169.129 347.297 169.023 347.481L170.755 348.481C171.065 347.945 171.201 347.343 171.201 346.71H169.201ZM169.021 347.484C168.907 347.684 168.757 347.831 168.556 347.94L169.513 349.696C170.04 349.409 170.459 348.998 170.757 348.478L169.021 347.484ZM168.558 347.939C168.362 348.046 168.114 348.113 167.787 348.113V350.113C168.4 350.113 168.983 349.984 169.511 349.697L168.558 347.939ZM167.787 348.113C167.427 348.113 167.154 348.03 166.935 347.894L165.879 349.593C166.453 349.949 167.1 350.113 167.787 350.113V348.113ZM166.936 347.895C166.715 347.757 166.528 347.555 166.382 347.254L164.584 348.13C164.88 348.738 165.31 349.237 165.877 349.591L166.936 347.895ZM166.383 347.257C166.243 346.967 166.154 346.583 166.154 346.075H164.154C164.154 346.815 164.284 347.509 164.582 348.127L166.383 347.257ZM166.154 346.075C166.154 345.696 166.204 345.385 166.289 345.131L164.393 344.496C164.228 344.989 164.154 345.519 164.154 346.075H166.154ZM166.288 345.134C166.379 344.867 166.497 344.666 166.631 344.514L165.126 343.196C164.798 343.57 164.558 344.009 164.394 344.493L166.288 345.134ZM166.631 344.514C166.768 344.357 166.924 344.243 167.105 344.162L166.292 342.335C165.842 342.535 165.451 342.825 165.126 343.196L166.631 344.514ZM167.105 344.162C167.281 344.084 167.488 344.037 167.741 344.037V342.037C167.235 342.037 166.747 342.132 166.292 342.335L167.105 344.162ZM167.741 344.037C167.951 344.037 168.129 344.069 168.283 344.123L168.943 342.235C168.558 342.1 168.155 342.037 167.741 342.037V344.037ZM168.291 344.126C168.457 344.182 168.593 344.258 168.709 344.352L169.967 342.797C169.659 342.548 169.312 342.361 168.935 342.232L168.291 344.126ZM168.716 344.358C168.835 344.452 168.933 344.564 169.015 344.699L170.729 343.668C170.525 343.33 170.268 343.036 169.959 342.791L168.716 344.358ZM169.017 344.702C169.093 344.828 169.15 344.975 169.184 345.151L171.149 344.782C171.074 344.384 170.935 344.009 170.727 343.665L169.017 344.702ZM170.166 343.966H169.427V345.966H170.166V343.966ZM177.595 343.118V342.118H176.595V343.118H177.595ZM178.311 343.118H179.311V342.118H178.311V343.118ZM178.025 348.117L177.168 347.602L177.167 347.604L178.025 348.117ZM177.226 348.865L177.691 349.75L177.694 349.748L177.226 348.865ZM174.8 348.865L174.331 349.748L174.335 349.75L174.8 348.865ZM173.997 348.117L173.138 348.627L173.141 348.633L173.997 348.117ZM173.714 343.118V342.118H172.714V343.118H173.714ZM174.431 343.118H175.431V342.118H174.431V343.118ZM174.621 347.747L173.75 348.238L173.752 348.242L174.621 347.747ZM175.164 348.275L174.683 349.152L174.691 349.157L175.164 348.275ZM176.862 348.275L177.335 349.157L177.34 349.154L176.862 348.275ZM177.405 347.747L176.534 347.256L176.532 347.258L177.405 347.747ZM177.595 344.118H178.311V342.118H177.595V344.118ZM177.311 343.118V347.034H179.311V343.118H177.311ZM177.311 347.034C177.311 347.274 177.257 347.454 177.168 347.602L178.883 348.631C179.175 348.144 179.311 347.602 179.311 347.034H177.311ZM177.167 347.604C177.078 347.753 176.95 347.878 176.757 347.981L177.694 349.748C178.19 349.485 178.596 349.112 178.884 348.63L177.167 347.604ZM176.761 347.979C176.585 348.072 176.346 348.136 176.013 348.136V350.136C176.608 350.136 177.177 350.019 177.691 349.75L176.761 347.979ZM176.013 348.136C175.68 348.136 175.441 348.072 175.265 347.979L174.335 349.75C174.848 350.019 175.418 350.136 176.013 350.136V348.136ZM175.269 347.981C175.075 347.878 174.945 347.751 174.853 347.6L173.141 348.633C173.431 349.113 173.836 349.485 174.331 349.748L175.269 347.981ZM174.857 347.606C174.769 347.457 174.714 347.276 174.714 347.034H172.714C172.714 347.6 172.849 348.141 173.138 348.627L174.857 347.606ZM174.714 347.034V343.118H172.714V347.034H174.714ZM173.714 344.118H174.431V342.118H173.714V344.118ZM173.431 343.118V346.976H175.431V343.118H173.431ZM173.431 346.976C173.431 347.416 173.529 347.846 173.75 348.238L175.492 347.256C175.459 347.197 175.431 347.113 175.431 346.976H173.431ZM173.752 348.242C173.974 348.633 174.293 348.938 174.683 349.152L175.645 347.399C175.565 347.355 175.522 347.308 175.49 347.253L173.752 348.242ZM174.691 349.157C175.103 349.377 175.555 349.466 176.013 349.466V347.466C175.812 347.466 175.699 347.428 175.637 347.394L174.691 349.157ZM176.013 349.466C176.47 349.466 176.923 349.377 177.335 349.157L176.389 347.394C176.327 347.428 176.214 347.466 176.013 347.466V349.466ZM177.34 349.154C177.733 348.94 178.055 348.632 178.277 348.236L176.532 347.258C176.504 347.308 176.464 347.353 176.383 347.397L177.34 349.154ZM178.276 348.238C178.497 347.846 178.595 347.416 178.595 346.976H176.595C176.595 347.113 176.567 347.197 176.534 347.256L178.276 348.238ZM178.595 346.976V343.118H176.595V346.976H178.595ZM179.741 349.032H178.741V350.032H179.741V349.032ZM179.741 343.118V342.118H178.741V343.118H179.741ZM182.877 343.37L182.383 344.239L182.39 344.243L182.877 343.37ZM183.536 344.042L182.642 344.492V344.492L183.536 344.042ZM183.536 345.939L182.641 345.492L182.639 345.497L183.536 345.939ZM182.883 346.621L183.377 347.49L183.382 347.488L182.883 346.621ZM180.319 346.872H179.319V347.872H180.319V346.872ZM180.319 346.237V345.237H179.319V346.237H180.319ZM182.493 346.072L181.998 345.203L182.493 346.072ZM182.912 345.628L182.007 345.203L182.005 345.207L182.912 345.628ZM182.912 344.354L182.005 344.775L182.008 344.783L182.912 344.354ZM182.49 343.915L182.005 344.79L182.012 344.794L182.49 343.915ZM180.458 343.754V342.754H179.458V343.754H180.458ZM180.458 349.032V350.032H181.458V349.032H180.458ZM180.741 349.032V343.118H178.741V349.032H180.741ZM179.741 344.118H181.74V342.118H179.741V344.118ZM181.74 344.118C182.091 344.118 182.285 344.183 182.383 344.239L183.372 342.5C182.881 342.221 182.316 342.118 181.74 342.118V344.118ZM182.39 344.243C182.525 344.318 182.596 344.401 182.642 344.492L184.429 343.593C184.19 343.118 183.823 342.752 183.365 342.496L182.39 344.243ZM182.642 344.492C182.708 344.622 182.749 344.781 182.749 344.989H184.749C184.749 344.501 184.648 344.029 184.429 343.593L182.642 344.492ZM182.749 344.989C182.749 345.197 182.708 345.359 182.641 345.492L184.43 346.387C184.648 345.95 184.749 345.478 184.749 344.989H182.749ZM182.639 345.497C182.592 345.592 182.52 345.676 182.384 345.754L183.382 347.488C183.835 347.227 184.198 346.857 184.432 346.382L182.639 345.497ZM182.389 345.752C182.289 345.808 182.097 345.872 181.751 345.872V347.872C182.325 347.872 182.888 347.769 183.377 347.49L182.389 345.752ZM181.751 345.872H180.319V347.872H181.751V345.872ZM181.319 346.872V346.237H179.319V346.872H181.319ZM180.319 347.237H181.728V345.237H180.319V347.237ZM181.728 347.237C182.148 347.237 182.594 347.166 182.988 346.941L181.998 345.203C182.008 345.198 181.943 345.237 181.728 345.237V347.237ZM182.988 346.941C183.347 346.737 183.638 346.438 183.819 346.048L182.005 345.207C182.005 345.206 182.006 345.204 182.008 345.201C182.01 345.198 182.012 345.195 182.014 345.193C182.016 345.191 182.016 345.191 182.014 345.193C182.012 345.195 182.007 345.198 181.998 345.203L182.988 346.941ZM183.817 346.052C183.976 345.714 184.045 345.353 184.045 344.989H182.045C182.045 345.099 182.025 345.164 182.007 345.203L183.817 346.052ZM184.045 344.989C184.045 344.626 183.976 344.265 183.815 343.926L182.008 344.783C182.025 344.817 182.045 344.879 182.045 344.989H184.045ZM183.819 343.933C183.635 343.537 183.336 343.237 182.969 343.037L182.012 344.794C182.02 344.798 182.024 344.801 182.025 344.801C182.025 344.802 182.023 344.8 182.02 344.797C182.017 344.794 182.014 344.79 182.011 344.785C182.008 344.781 182.006 344.777 182.005 344.775L183.819 343.933ZM182.975 343.041C182.581 342.822 182.137 342.754 181.716 342.754V344.754C181.939 344.754 182.011 344.793 182.005 344.79L182.975 343.041ZM181.716 342.754H180.458V344.754H181.716V342.754ZM179.458 343.754V349.032H181.458V343.754H179.458ZM180.458 348.032H179.741V350.032H180.458V348.032Z" fill="black"/>
<path d="M144.717 154.032L113.424 153.889L113.398 159.665L144.691 159.808L144.717 154.032Z" fill="#E2FBDA"/>
<path opacity="0.1" d="M114.403 158.67L114.42 154.894L143.712 155.027L143.695 158.804L114.403 158.67Z" fill="black" stroke="black" stroke-width="2"/>
<path d="M236.448 189.498C236.694 189.473 236.936 189.415 237.166 189.326C237.503 189.194 237.796 188.969 238.011 188.677C238.226 188.384 238.355 188.037 238.383 187.674C238.383 185.728 238.383 182.889 238.383 179.242C238.383 177.419 238.383 175.375 238.383 173.123C238.383 172.572 238.383 171.997 238.383 171.422C238.462 170.864 238.341 170.296 238.042 169.819C237.875 169.59 237.657 169.404 237.406 169.274C237.154 169.145 236.877 169.076 236.594 169.072H234.696H217.116L115.354 168.693C115.093 168.688 114.835 168.747 114.602 168.864C114.369 168.982 114.168 169.154 114.015 169.366C113.722 169.845 113.609 170.414 113.699 170.969C113.699 172.193 113.699 173.417 113.699 174.641C113.699 177.088 113.699 179.536 113.699 181.984C113.699 183.207 113.699 184.431 113.699 185.655C113.649 186.225 113.649 186.798 113.699 187.368C113.763 187.613 113.882 187.839 114.046 188.03C114.211 188.221 114.417 188.371 114.648 188.47C114.888 188.566 115.144 188.612 115.402 188.604H121.595L148.617 188.751L194.364 189.033L225.206 189.277L233.589 189.375H235.767C236.266 189.375 236.509 189.375 236.509 189.375H235.767H233.589H225.206H194.364L148.617 189.229L121.595 189.118H115.402C115.062 189.132 114.722 189.074 114.405 188.947C114.084 188.81 113.799 188.6 113.572 188.335C113.344 188.07 113.179 187.756 113.091 187.417C113.02 187.096 112.996 186.766 113.018 186.438V185.533C113.018 184.309 113.018 183.085 113.018 181.861C113.018 179.414 113.018 176.966 113.018 174.518C113.018 173.294 113.018 172.071 113.018 170.847C112.994 170.521 112.994 170.194 113.018 169.868C113.063 169.508 113.202 169.166 113.419 168.876C113.629 168.581 113.907 168.341 114.229 168.177C114.551 168.013 114.908 167.93 115.268 167.934L217.03 168.497L234.611 168.619H236.509C236.844 168.62 237.173 168.701 237.47 168.857C237.766 169.012 238.021 169.237 238.213 169.513C238.556 170.045 238.694 170.685 238.602 171.312C238.602 171.887 238.602 172.462 238.602 173.013C238.602 175.24 238.602 177.284 238.602 179.132C238.602 182.804 238.517 185.618 238.492 187.576C238.463 187.953 238.327 188.313 238.1 188.614C237.874 188.916 237.567 189.146 237.215 189.277C236.985 189.421 236.719 189.497 236.448 189.498Z" fill="#E0E0E0"/>
<path d="M180.056 174.836H122.824V180.233H180.056V174.836Z" fill="#E2FBDA"/>
<path opacity="0.2" d="M123.824 179.233V175.836H179.056V179.233H123.824Z" fill="white" stroke="black" stroke-width="2"/>
<path d="M144.503 206.728L113.211 206.585L113.185 212.361L144.477 212.504L144.503 206.728Z" fill="#E2FBDA"/>
<path opacity="0.1" d="M114.19 211.366L114.207 207.59L143.499 207.723L143.482 211.5L114.19 211.366Z" fill="black" stroke="black" stroke-width="2"/>
<path d="M235.658 242.195C235.903 242.165 236.147 242.12 236.388 242.061C236.728 241.952 237.04 241.771 237.305 241.53C237.569 241.29 237.779 240.995 237.921 240.666C238.112 240.172 238.187 239.64 238.14 239.111C238.14 238.524 238.14 237.888 238.14 237.178C238.14 235.758 238.14 234.143 238.14 232.282V224.511C238.198 223.949 238.074 223.382 237.787 222.896C237.487 222.397 237.015 222.027 236.461 221.856C235.855 221.747 235.238 221.714 234.624 221.758H217.116L115.707 221.378C115.161 221.38 114.635 221.58 114.225 221.942C113.816 222.305 113.551 222.805 113.48 223.349C113.48 224.511 113.48 225.796 113.48 227.02C113.48 229.468 113.48 231.915 113.48 234.363C113.48 235.587 113.48 236.811 113.48 238.034C113.435 238.606 113.459 239.182 113.553 239.748C113.705 240.244 114.018 240.675 114.441 240.972C114.891 241.258 115.419 241.396 115.95 241.363H117.641H121.157L148.082 241.498L193.671 241.779L224.404 242.024L232.762 242.122H224.404H193.671L148.058 242.073L121.133 241.975H115.84C115.182 242.014 114.529 241.838 113.979 241.473C113.425 241.088 113.021 240.521 112.835 239.87C112.726 239.248 112.694 238.615 112.738 237.985C112.738 236.762 112.738 235.538 112.738 234.314C112.738 231.866 112.738 229.419 112.738 226.971C112.738 225.747 112.738 224.523 112.738 223.3C112.827 222.6 113.166 221.957 113.692 221.49C114.219 221.024 114.896 220.767 115.597 220.766L217.006 221.329L234.514 221.464C235.166 221.424 235.82 221.469 236.461 221.599C237.093 221.806 237.626 222.242 237.957 222.822C238.272 223.361 238.408 223.987 238.347 224.609C238.347 225.184 238.347 225.747 238.347 226.31C238.347 228.525 238.347 230.557 238.347 232.429C238.347 234.302 238.347 235.88 238.347 237.325C238.347 238.022 238.347 238.671 238.347 239.27C238.391 239.818 238.303 240.368 238.091 240.874C237.933 241.211 237.705 241.511 237.421 241.752C237.138 241.992 236.806 242.169 236.449 242.269C236.183 242.291 235.915 242.266 235.658 242.195Z" fill="#E0E0E0"/>
<path d="M235.713 298.026C235.959 297.996 236.203 297.951 236.443 297.891C236.783 297.783 237.096 297.602 237.36 297.361C237.625 297.12 237.835 296.825 237.976 296.496C238.168 296.002 238.243 295.47 238.195 294.942C238.195 294.354 238.195 293.718 238.195 293.008C238.195 291.589 238.195 289.973 238.195 288.113V280.342C238.253 279.779 238.13 279.213 237.843 278.726C237.542 278.228 237.07 277.857 236.516 277.686C235.91 277.577 235.293 277.544 234.679 277.588H217.171L115.762 277.209C115.217 277.21 114.69 277.411 114.281 277.773C113.871 278.135 113.607 278.635 113.536 279.179C113.536 280.342 113.536 281.627 113.536 282.851C113.536 285.298 113.536 287.746 113.536 290.194C113.536 291.417 113.536 292.641 113.536 293.865C113.49 294.437 113.515 295.012 113.609 295.578C113.761 296.075 114.073 296.505 114.497 296.802C114.946 297.089 115.474 297.226 116.006 297.194H117.697H121.213L148.138 297.328L193.726 297.61L224.459 297.855L232.818 297.953H224.459H193.726L148.113 297.904L121.189 297.806H115.896C115.238 297.845 114.585 297.669 114.035 297.304C113.481 296.918 113.077 296.352 112.891 295.701C112.782 295.079 112.749 294.446 112.794 293.816C112.794 292.592 112.794 291.368 112.794 290.145C112.794 287.697 112.794 285.249 112.794 282.802C112.794 281.578 112.794 280.354 112.794 279.13C112.882 278.43 113.222 277.787 113.748 277.321C114.274 276.855 114.951 276.597 115.653 276.597L217.062 277.16L234.57 277.294C235.222 277.254 235.876 277.3 236.516 277.429C237.149 277.637 237.682 278.073 238.013 278.653C238.328 279.192 238.464 279.818 238.402 280.44C238.402 281.015 238.402 281.578 238.402 282.141C238.402 284.356 238.402 286.387 238.402 288.26C238.402 290.132 238.402 291.711 238.402 293.155C238.402 293.853 238.402 294.501 238.402 295.101C238.446 295.648 238.359 296.198 238.147 296.704C237.989 297.042 237.76 297.341 237.477 297.582C237.193 297.823 236.862 297.999 236.504 298.099C236.238 298.121 235.971 298.097 235.713 298.026Z" fill="#E0E0E0"/>
<path d="M126.297 287.869C126.261 288.361 126.082 288.832 125.783 289.223C125.483 289.614 125.076 289.908 124.612 290.069C124.148 290.229 123.648 290.249 123.172 290.126C122.697 290.003 122.268 289.742 121.939 289.376C121.61 289.01 121.395 288.555 121.32 288.067C121.246 287.579 121.315 287.08 121.52 286.632C121.725 286.183 122.056 285.805 122.473 285.544C122.89 285.283 123.373 285.151 123.864 285.164C124.542 285.202 125.177 285.508 125.633 286.014C126.088 286.52 126.327 287.187 126.297 287.869Z" fill="#E2FBDA"/>
<path d="M134.047 287.906C134.071 288.251 134.024 288.597 133.91 288.923C133.795 289.249 133.615 289.548 133.38 289.801C133.145 290.054 132.862 290.255 132.546 290.393C132.231 290.531 131.891 290.602 131.547 290.602C131.203 290.602 130.863 290.531 130.548 290.393C130.232 290.255 129.949 290.054 129.714 289.801C129.48 289.548 129.299 289.249 129.185 288.923C129.07 288.597 129.023 288.251 129.047 287.906C129.023 287.561 129.07 287.215 129.185 286.889C129.299 286.563 129.48 286.264 129.714 286.011C129.949 285.758 130.232 285.556 130.548 285.418C130.863 285.28 131.203 285.209 131.547 285.209C131.891 285.209 132.231 285.28 132.546 285.418C132.862 285.556 133.145 285.758 133.38 286.011C133.615 286.264 133.795 286.563 133.91 286.889C134.024 287.215 134.071 287.561 134.047 287.906Z" fill="#E2FBDA"/>
<path d="M141.809 287.943C141.774 288.435 141.595 288.906 141.295 289.297C140.996 289.688 140.589 289.982 140.125 290.142C139.661 290.303 139.16 290.323 138.685 290.2C138.21 290.076 137.781 289.816 137.451 289.45C137.122 289.084 136.907 288.629 136.833 288.141C136.758 287.653 136.828 287.154 137.033 286.705C137.237 286.257 137.569 285.879 137.985 285.618C138.402 285.357 138.886 285.225 139.376 285.238C140.053 285.279 140.687 285.585 141.141 286.091C141.596 286.596 141.836 287.261 141.809 287.943Z" fill="#E2FBDA"/>
<path d="M149.56 287.979C149.524 288.472 149.345 288.943 149.045 289.334C148.746 289.725 148.339 290.019 147.875 290.179C147.411 290.34 146.91 290.359 146.435 290.236C145.96 290.113 145.531 289.853 145.202 289.487C144.872 289.121 144.657 288.666 144.583 288.178C144.508 287.69 144.578 287.191 144.783 286.742C144.988 286.294 145.319 285.916 145.736 285.655C146.152 285.394 146.636 285.262 147.126 285.275C147.803 285.316 148.437 285.622 148.892 286.128C149.347 286.633 149.586 287.298 149.56 287.979Z" fill="#E2FBDA"/>
<path d="M157.31 288.004C157.276 288.497 157.099 288.969 156.801 289.362C156.503 289.755 156.097 290.05 155.633 290.213C155.169 290.375 154.667 290.397 154.191 290.275C153.715 290.153 153.285 289.893 152.955 289.527C152.624 289.162 152.408 288.707 152.333 288.218C152.257 287.73 152.326 287.23 152.531 286.781C152.736 286.332 153.067 285.953 153.484 285.692C153.901 285.43 154.385 285.298 154.876 285.311C155.551 285.353 156.183 285.657 156.637 286.16C157.092 286.663 157.333 287.325 157.31 288.004Z" fill="#E2FBDA"/>
<path d="M165.072 288.041C165.039 288.531 164.864 289.001 164.568 289.393C164.273 289.784 163.87 290.081 163.41 290.245C162.949 290.41 162.451 290.435 161.976 290.318C161.501 290.201 161.071 289.948 160.738 289.588C160.405 289.228 160.183 288.778 160.101 288.294C160.019 287.809 160.079 287.311 160.275 286.861C160.47 286.41 160.792 286.027 161.202 285.758C161.611 285.489 162.089 285.347 162.578 285.348C163.263 285.374 163.91 285.671 164.378 286.176C164.845 286.681 165.095 287.351 165.072 288.041Z" fill="#E2FBDA"/>
<path d="M172.822 288.077C172.846 288.422 172.799 288.768 172.684 289.094C172.57 289.42 172.389 289.719 172.155 289.972C171.92 290.225 171.637 290.427 171.321 290.565C171.006 290.703 170.666 290.774 170.322 290.774C169.978 290.774 169.638 290.703 169.323 290.565C169.007 290.427 168.724 290.225 168.489 289.972C168.255 289.719 168.074 289.42 167.96 289.094C167.845 288.768 167.798 288.422 167.822 288.077C167.798 287.732 167.845 287.386 167.96 287.06C168.074 286.734 168.255 286.435 168.489 286.182C168.724 285.929 169.007 285.727 169.323 285.59C169.638 285.452 169.978 285.38 170.322 285.38C170.666 285.38 171.006 285.452 171.321 285.59C171.637 285.727 171.92 285.929 172.155 286.182C172.389 286.435 172.57 286.734 172.684 287.06C172.799 287.386 172.846 287.732 172.822 288.077Z" fill="#E2FBDA"/>
<path d="M180.572 288.114C180.539 288.604 180.364 289.074 180.069 289.466C179.773 289.858 179.371 290.154 178.91 290.318C178.449 290.483 177.951 290.508 177.476 290.391C177.002 290.275 176.571 290.021 176.238 289.661C175.905 289.301 175.684 288.852 175.601 288.367C175.519 287.883 175.579 287.384 175.775 286.934C175.97 286.483 176.292 286.1 176.702 285.831C177.111 285.563 177.589 285.42 178.078 285.421C178.763 285.447 179.411 285.745 179.878 286.249C180.346 286.754 180.595 287.424 180.572 288.114Z" fill="#E2FBDA"/>
<path d="M188.323 288.151C188.289 288.644 188.112 289.116 187.814 289.508C187.516 289.901 187.109 290.197 186.645 290.359C186.181 290.522 185.68 290.543 185.204 290.422C184.728 290.3 184.298 290.04 183.968 289.674C183.637 289.309 183.421 288.853 183.345 288.365C183.27 287.877 183.339 287.377 183.544 286.928C183.749 286.478 184.08 286.1 184.497 285.838C184.914 285.577 185.398 285.445 185.889 285.458C186.564 285.499 187.196 285.804 187.65 286.307C188.105 286.81 188.346 287.471 188.323 288.151Z" fill="#E2FBDA"/>
<path d="M144.268 261.712L112.975 261.569L112.949 267.346L144.242 267.489L144.268 261.712Z" fill="#E2FBDA"/>
<path opacity="0.1" d="M144.268 261.712L112.975 261.569L112.949 267.346L144.242 267.489L144.268 261.712Z" fill="black"/>
<path d="M178.834 229.06L121.603 228.799L121.579 234.196L178.81 234.457L178.834 229.06Z" fill="#E2FBDA"/>
<path opacity="0.2" d="M122.583 233.2L122.598 229.803L177.83 230.055L177.814 233.452L122.583 233.2Z" fill="white" stroke="black" stroke-width="2"/>
<g opacity="0.2">
<path d="M125.798 287.84C125.768 288.233 125.625 288.608 125.386 288.919C125.146 289.233 124.82 289.468 124.449 289.596C124.078 289.725 123.678 289.74 123.298 289.642C122.918 289.544 122.575 289.335 122.311 289.042C122.047 288.749 121.874 288.384 121.814 287.992C121.755 287.6 121.811 287.199 121.975 286.84C122.139 286.48 122.405 286.177 122.738 285.968C123.07 285.761 123.454 285.655 123.843 285.664C124.386 285.696 124.895 285.942 125.261 286.348C125.627 286.755 125.82 287.291 125.798 287.84Z" fill="white" stroke="black"/>
<path d="M133.549 287.871L133.546 287.906L133.549 287.94C133.568 288.217 133.53 288.495 133.438 288.757L133.91 288.923L133.438 288.757C133.346 289.019 133.201 289.258 133.013 289.461C132.825 289.663 132.598 289.825 132.346 289.935C132.094 290.045 131.822 290.102 131.547 290.102C131.272 290.102 131 290.045 130.748 289.935C130.496 289.825 130.269 289.663 130.081 289.461C129.893 289.258 129.748 289.019 129.656 288.757C129.564 288.495 129.526 288.217 129.546 287.94L129.548 287.906L129.546 287.871C129.526 287.594 129.564 287.316 129.656 287.054C129.748 286.793 129.893 286.553 130.081 286.351C130.269 286.148 130.496 285.987 130.748 285.876C131 285.766 131.272 285.709 131.547 285.709C131.822 285.709 132.094 285.766 132.346 285.876C132.598 285.987 132.825 286.148 133.013 286.351C133.201 286.553 133.346 286.793 133.438 287.054C133.53 287.316 133.568 287.594 133.549 287.871Z" fill="white" stroke="black"/>
<path d="M141.31 287.915C141.28 288.307 141.137 288.681 140.899 288.993C140.659 289.306 140.333 289.541 139.962 289.67C139.591 289.798 139.19 289.814 138.81 289.716C138.43 289.617 138.087 289.409 137.823 289.115C137.56 288.822 137.387 288.457 137.327 288.065C137.267 287.674 137.323 287.273 137.488 286.913C137.652 286.553 137.918 286.25 138.251 286.042C138.582 285.834 138.965 285.729 139.355 285.738C139.897 285.773 140.404 286.019 140.77 286.425C141.136 286.832 141.33 287.366 141.31 287.915Z" fill="white" stroke="black"/>
<path d="M149.06 287.951C149.03 288.344 148.887 288.718 148.649 289.03C148.409 289.343 148.083 289.578 147.712 289.707C147.341 289.835 146.94 289.851 146.561 289.752C146.181 289.654 145.837 289.445 145.574 289.152C145.31 288.859 145.137 288.494 145.077 288.102C145.017 287.71 145.073 287.31 145.238 286.95C145.402 286.59 145.668 286.287 146.001 286.078C146.332 285.871 146.716 285.766 147.105 285.774C147.647 285.81 148.155 286.056 148.52 286.462C148.886 286.869 149.08 287.403 149.06 287.951Z" fill="white" stroke="black"/>
<path d="M156.81 287.978C156.782 288.371 156.64 288.747 156.403 289.06C156.164 289.374 155.839 289.611 155.468 289.741C155.097 289.871 154.696 289.888 154.315 289.791C153.935 289.693 153.59 289.485 153.326 289.192C153.061 288.899 152.887 288.534 152.827 288.142C152.766 287.75 152.822 287.349 152.986 286.988C153.15 286.628 153.416 286.325 153.75 286.116C154.081 285.908 154.465 285.802 154.855 285.811C155.395 285.846 155.901 286.091 156.266 286.495C156.632 286.9 156.827 287.431 156.81 287.978Z" fill="white" stroke="black"/>
<path d="M164.573 288.015C164.545 288.406 164.405 288.78 164.169 289.091C163.933 289.405 163.61 289.642 163.242 289.774C162.874 289.905 162.475 289.926 162.096 289.832C161.716 289.739 161.372 289.536 161.105 289.248C160.838 288.96 160.66 288.599 160.594 288.21C160.528 287.821 160.577 287.421 160.733 287.059C160.89 286.698 161.149 286.391 161.476 286.176C161.801 285.962 162.181 285.849 162.568 285.848C163.117 285.871 163.636 286.11 164.011 286.516C164.387 286.921 164.589 287.46 164.573 288.015Z" fill="white" stroke="black"/>
<path d="M172.324 288.042L172.321 288.077L172.324 288.112C172.343 288.389 172.305 288.667 172.213 288.928L172.685 289.094L172.213 288.928C172.121 289.19 171.976 289.43 171.788 289.632C171.6 289.835 171.373 289.996 171.121 290.107C170.869 290.217 170.597 290.274 170.322 290.274C170.047 290.274 169.775 290.217 169.523 290.107C169.271 289.996 169.044 289.835 168.856 289.632C168.668 289.43 168.523 289.19 168.431 288.928C168.339 288.667 168.301 288.389 168.321 288.112L168.323 288.077L168.321 288.042C168.301 287.765 168.339 287.487 168.431 287.226C168.523 286.964 168.668 286.725 168.856 286.522C169.044 286.319 169.271 286.158 169.523 286.048C169.775 285.937 170.047 285.88 170.322 285.88C170.597 285.88 170.869 285.937 171.121 286.048C171.373 286.158 171.601 286.319 171.788 286.522C171.976 286.725 172.121 286.964 172.213 287.226C172.305 287.487 172.343 287.765 172.324 288.042Z" fill="white" stroke="black"/>
<path d="M180.073 288.089C180.045 288.479 179.905 288.853 179.67 289.165C179.433 289.479 179.11 289.716 178.742 289.848C178.374 289.979 177.976 289.999 177.596 289.906C177.217 289.813 176.872 289.61 176.605 289.321C176.338 289.033 176.161 288.673 176.094 288.283C176.028 287.894 176.077 287.494 176.234 287.133C176.391 286.771 176.649 286.464 176.976 286.249C177.301 286.036 177.681 285.922 178.068 285.922C178.617 285.944 179.136 286.184 179.512 286.589C179.887 286.995 180.089 287.534 180.073 288.089Z" fill="white" stroke="black"/>
<path d="M187.823 288.125C187.795 288.518 187.653 288.893 187.416 289.206C187.177 289.521 186.852 289.758 186.481 289.887C186.11 290.017 185.709 290.034 185.328 289.937C184.948 289.84 184.604 289.632 184.339 289.339C184.074 289.046 183.9 288.681 183.84 288.289C183.779 287.897 183.835 287.495 183.999 287.135C184.163 286.774 184.429 286.471 184.763 286.262C185.094 286.054 185.478 285.949 185.868 285.958C186.408 285.993 186.914 286.238 187.28 286.642C187.645 287.046 187.84 287.578 187.823 288.125Z" fill="white" stroke="black"/>
</g>
<path d="M177.793 110.782C178.638 110.408 179.355 109.791 179.855 109.01C180.355 108.229 180.615 107.317 180.604 106.388C180.635 105.785 180.544 105.181 180.336 104.613C180.128 104.046 179.807 103.527 179.393 103.089C178.98 102.65 178.481 102.301 177.929 102.062C177.377 101.823 176.782 101.7 176.181 101.7C175.58 101.7 174.985 101.823 174.433 102.062C173.88 102.301 173.382 102.65 172.968 103.089C172.555 103.527 172.234 104.046 172.026 104.613C171.818 105.181 171.727 105.785 171.758 106.388C171.74 107.327 171.998 108.249 172.5 109.04C173.003 109.831 173.727 110.454 174.581 110.831C167.768 111.859 168.072 119.3 168.072 119.3L184.181 119.373C184.181 119.373 184.558 111.798 177.793 110.782Z" fill="#E2FBDA"/>
<path opacity="0.1" d="M177.388 109.868L176.134 110.423L174.985 109.916C174.312 109.619 173.741 109.128 173.344 108.504C172.948 107.879 172.744 107.15 172.758 106.408L172.759 106.372L172.757 106.336C172.733 105.867 172.803 105.398 172.965 104.958C173.126 104.517 173.375 104.115 173.696 103.775C174.016 103.435 174.402 103.165 174.829 102.98C175.257 102.795 175.716 102.7 176.181 102.7C176.645 102.7 177.105 102.795 177.532 102.98C177.96 103.165 178.345 103.435 178.666 103.775L179.382 103.1L178.666 103.775C178.987 104.115 179.236 104.517 179.397 104.958C179.559 105.398 179.629 105.867 179.605 106.336L179.603 106.369L179.604 106.401C179.613 107.135 179.407 107.855 179.013 108.471C178.618 109.088 178.053 109.573 177.388 109.868ZM183.138 118.27C183.142 118.303 183.145 118.336 183.147 118.368L169.117 118.304C169.119 118.28 169.122 118.255 169.125 118.23C169.196 117.575 169.356 116.704 169.703 115.814C170.385 114.066 171.766 112.267 174.73 111.82L176.346 111.576L177.645 111.771C180.569 112.21 181.923 114.023 182.586 115.807C182.923 116.713 183.074 117.602 183.138 118.27Z" fill="black" stroke="black" stroke-width="2"/>
<path d="M203.969 124.172L146.555 123.91L146.524 130.812L203.938 131.074L203.969 124.172Z" fill="#E2FBDA"/>
<path opacity="0.2" d="M147.528 129.817L147.551 124.915L202.964 125.168L202.942 130.07L147.528 129.817Z" fill="white" stroke="black" stroke-width="2"/>
</g>
<defs>
<clipPath id="clip0_66_3936">
<rect width="400" height="436.5" fill="white" transform="translate(0 0.25)"/>
</clipPath>
</defs>
</svg>
